<?xml version="1.0" encoding="utf-8"?>
<!-- Generator: Adobe Illustrator 16.0.0, SVG Export Plug-In . SVG Version: 6.00 Build 0)  -->
<!DOCTYPE svg PUBLIC "-//W3C//DTD SVG 1.1//EN" "http://www.w3.org/Graphics/SVG/1.1/DTD/svg11.dtd">
<svg version="1.1" id="Capa_1" xmlns="http://www.w3.org/2000/svg" xmlns:xlink="http://www.w3.org/1999/xlink" x="0px" y="0px"
	 width="509.5px" height="84.336px" viewBox="-17.567 102.117 509.5 84.336" enable-background="new -17.567 102.117 509.5 84.336"
	 xml:space="preserve">
<g>
	<path fill="#67737A" d="M471.896,181.675l0.012-19.606c0-2.511,1.228-4.317,3.747-4.317c2.055,0,3.646,1.506,3.646,3.648
		c0,2.142-1.591,3.647-3.646,3.647c-1.161,0-1.824-0.234-2.222-0.469v4.954c0.497,0.201,1.326,0.401,2.586,0.401
		c4.21,0,8.586-2.912,8.586-8.502c0-4.887-3.714-8.568-8.851-8.568c-4.708,0-8.636,2.678-8.636,7.899v20.927L471.896,181.675z"/>
	<polygon fill="#67737A" points="465.162,152.864 458.3,152.864 455.923,162.072 455.871,162.072 453.393,152.864 445.769,152.864 
		445.769,170.219 450.433,170.219 450.433,157.822 450.483,157.822 453.746,170.219 457.137,170.219 460.299,157.822 
		460.35,157.822 460.35,170.219 465.162,170.219 	"/>
	<polygon fill="#67737A" points="432.612,140.055 421.187,146.576 432.524,153.111 443.951,146.663 	"/>
	<polygon fill="#67737A" points="426.337,150.79 432.525,154.395 438.627,150.963 441.888,152.852 432.353,158.348 422.903,152.852 
			"/>
	<polygon fill="#67737A" points="427.88,156.804 432.438,159.56 437.084,156.891 440.258,158.781 432.438,163.34 424.533,158.781 	
		"/>
	<polygon fill="#67737A" points="429.438,162.647 432.353,164.537 435.626,162.647 438.974,164.624 432.438,168.49 425.991,164.537 
			"/>
	<polygon fill="#67737A" points="430.29,168.316 432.353,169.528 434.675,168.316 438.021,170.207 432.525,173.481 427.202,170.294 
			"/>
</g>
<g>
	<path fill="#66747B" d="M328.789,183.443l0.013-19.6c0-2.51,1.227-4.317,3.745-4.317c2.056,0,3.645,1.505,3.645,3.647
		c0,2.141-1.589,3.646-3.645,3.646c-1.16,0-1.823-0.234-2.22-0.469v4.953c0.495,0.201,1.325,0.4,2.584,0.4
		c4.208,0,8.583-2.91,8.583-8.498c0-4.885-3.712-8.566-8.849-8.566c-4.704,0-8.631,2.677-8.631,7.896v20.92L328.789,183.443z"/>
	<polygon fill="#66747B" points="322.059,154.642 315.198,154.642 312.821,163.847 312.771,163.847 310.293,154.642 
		302.671,154.642 302.671,171.99 307.333,171.99 307.333,159.598 307.385,159.598 310.646,171.99 314.035,171.99 317.196,159.598 
		317.248,159.598 317.248,171.99 322.059,171.99 	"/>
	<polygon fill="#66747B" points="278.097,148.357 289.519,141.837 300.854,148.443 289.433,154.889 	"/>
	<polygon fill="#66747B" points="283.246,152.568 289.433,156.173 295.532,152.741 298.791,154.63 289.259,160.124 279.814,154.63 	
		"/>
	<polygon fill="#66747B" points="284.788,158.581 289.346,161.335 293.989,158.668 297.162,160.557 289.346,165.113 
		281.443,160.557 	"/>
	<polygon fill="#66747B" points="286.346,164.422 289.259,166.31 292.532,164.422 295.879,166.398 289.346,170.263 282.899,166.31 	
		"/>
	<polygon fill="#66747B" points="287.197,170.09 289.259,171.301 291.581,170.09 294.927,171.978 289.432,175.252 284.111,172.066 	
		"/>
	<path fill="#CE003D" d="M402.485,156.654h2.035c1.857,0,3.039,0.729,3.039,2.838c0,2.311-1.858,3.014-3.617,3.014h-1.457V156.654
		L402.485,156.654z M399.975,171.974h2.511v-7.459h1.432c2.411,0,2.713,1.129,3.416,3.615l1.055,3.844h2.285l-1.029-4.822
		c-0.377-1.809-0.627-3.316-2.988-3.818v-0.051c1.758-0.426,3.415-1.38,3.415-4.093c0-3.39-2.359-4.545-5.073-4.545h-5.021
		L399.975,171.974L399.975,171.974z M387.092,163.31c0-2.751,0.527-6.722,3.993-6.722c3.465,0,4.018,3.971,4.018,6.722
		c0,2.754-0.553,6.725-4.018,6.725C387.619,170.035,387.092,166.064,387.092,163.31 M391.085,171.984c5.323,0,6.78-4.143,6.78-8.674
		c0-4.555-1.457-8.672-6.78-8.672c-5.325,0-6.756,4.117-6.756,8.672C384.329,167.842,385.76,171.984,391.085,171.984
		 M377.347,171.974h2.512v-15.321h4.319v-2.009h-11.15v2.009h4.319V171.974L377.347,171.974z M365.362,171.974h9.167v-2.01h-6.655
		v-15.32h-2.512V171.974z M356.674,156.955h0.051l2.386,8.062h-4.948L356.674,156.955z M349.239,171.974h2.663l1.682-4.947h6.203
		l1.708,4.947h2.662l-5.926-17.33h-3.09L349.239,171.974z"/>
</g>
<g>
	<path fill="#66747B" d="M169.742,182.096l0.011-18.731c0-2.401,1.174-4.128,3.581-4.128c1.963,0,3.484,1.439,3.484,3.485
		c0,2.048-1.521,3.485-3.484,3.485c-1.108,0-1.743-0.223-2.122-0.445v4.732c0.474,0.191,1.267,0.385,2.469,0.385
		c4.023,0,8.204-2.784,8.204-8.124c0-4.67-3.548-8.187-8.457-8.187c-4.498,0-8.251,2.558-8.251,7.547v19.994L169.742,182.096z"/>
	<polygon fill="#66747B" points="163.31,154.569 156.753,154.569 154.481,163.368 154.432,163.368 152.064,154.569 144.779,154.569 
		144.779,171.151 149.236,171.151 149.236,159.306 149.284,159.306 152.402,171.151 155.641,171.151 158.663,159.306 
		158.711,159.306 158.711,171.151 163.31,171.151 	"/>
	<polygon fill="#66747B" points="121.291,148.561 132.208,142.33 143.042,148.644 132.126,154.804 	"/>
	<polygon fill="#66747B" points="126.212,152.586 132.126,156.031 137.957,152.752 141.071,154.559 131.96,159.809 122.933,154.559 
			"/>
	<polygon fill="#66747B" points="127.687,158.333 132.043,160.967 136.481,158.417 139.513,160.223 132.043,164.578 
		124.489,160.223 	"/>
	<polygon fill="#66747B" points="129.175,163.916 131.96,165.722 135.089,163.916 138.286,165.805 132.043,169.499 125.882,165.722 
			"/>
	<polygon fill="#66747B" points="129.99,169.334 131.96,170.49 134.179,169.334 137.376,171.14 132.125,174.267 127.04,171.222 	"/>
	<path fill="#CE003D" d="M265.391,162.855c0-2.631,0.503-6.426,3.816-6.426c3.313,0,3.841,3.795,3.841,6.426
		c0,2.63-0.528,6.425-3.841,6.425C265.894,169.28,265.391,165.485,265.391,162.855 M269.207,171.143c5.088,0,6.48-3.959,6.48-8.288
		c0-4.356-1.393-8.29-6.48-8.29c-5.091,0-6.457,3.934-6.457,8.29C262.75,167.184,264.116,171.143,269.207,171.143 M261.767,168.024
		c-0.432,0.254-1.825,1.256-3.866,1.256c-3.432,0-4.439-2.956-4.439-6.984c0-2.188,0.432-5.867,3.551-5.867
		c2.329,0,2.617,1.815,2.617,2.794h2.785c0-2.749-1.944-4.658-5.329-4.658c-4.826,0-6.264,3.842-6.264,8.103
		c0,6.287,2.952,8.476,6.6,8.476c1.944,0,3.649-0.652,4.346-0.955V168.024z M237.042,171.134h2.16V157.86h0.048l6.697,13.273h2.832
		v-16.562h-2.16v12.96h-0.049l-6.528-12.96h-3V171.134L237.042,171.134z M226,171.134h9.362v-1.921H228.4v-5.735h6.409v-1.921H228.4
		v-5.064h6.745v-1.92H226V171.134L226,171.134z M216.831,171.134h2.977l5.64-16.562h-2.519l-4.561,13.827h-0.048l-4.513-13.827
		h-2.521L216.831,171.134z M202.572,171.134h9.362v-1.921h-6.961v-5.735h6.409v-1.921h-6.409v-5.064h6.746v-1.92h-9.146V171.134z
		 M191.699,156.492h1.392c3.026,0,4.801,1.08,4.801,6.362c0,5.207-1.775,6.335-4.776,6.358h-1.417V156.492L191.699,156.492z
		 M189.3,171.134h4.248c3.841,0,6.985-1.464,6.985-8.328c0-5.45-1.942-8.233-6.985-8.233H189.3V171.134z"/>
</g>
<path fill="#66747B" d="M38.076,184.294l0.011-19.175c0-2.454,1.2-4.223,3.665-4.223c2.01,0,3.565,1.473,3.565,3.568
	s-1.556,3.567-3.565,3.567c-1.136,0-1.784-0.229-2.173-0.459v4.846c0.486,0.197,1.297,0.393,2.528,0.393
	c4.118,0,8.397-2.849,8.397-8.314c0-4.779-3.632-8.379-8.656-8.379c-4.604,0-8.445,2.619-8.445,7.725v20.465L38.076,184.294z"/>
<polygon fill="#66747B" points="31.491,156.118 24.781,156.118 22.456,165.123 22.405,165.123 19.981,156.118 12.524,156.118 
	12.524,173.09 17.086,173.09 17.086,160.966 17.136,160.966 20.327,173.09 23.643,173.09 26.735,160.966 26.785,160.966 
	26.785,173.09 31.491,173.09 "/>
<polygon fill="#66747B" points="-11.515,149.969 -0.341,143.592 10.748,150.054 -0.426,156.36 "/>
<polygon fill="#66747B" points="-6.479,154.089 -0.426,157.616 5.541,154.258 8.73,156.107 -0.595,161.482 -9.836,156.107 "/>
<polygon fill="#66747B" points="-4.969,159.972 -0.511,162.667 4.033,160.056 7.136,161.904 -0.511,166.362 -8.242,161.904 "/>
<polygon fill="#66747B" points="-3.445,165.685 -0.595,167.533 2.607,165.685 5.88,167.619 -0.511,171.399 -6.817,167.533 "/>
<polygon fill="#66747B" points="-2.612,171.23 -0.595,172.415 1.676,171.23 4.949,173.079 -0.426,176.281 -5.632,173.164 "/>
<path fill="#CE003D" d="M98.875,158.381h0.049l2.333,7.886h-4.84L98.875,158.381z M91.603,173.073h2.604l1.647-4.84h6.068
	l1.671,4.84h2.604l-5.798-16.953h-3.022L91.603,173.073z M73.839,173.073h2.211V159.02H76.1l4.865,14.053h2.334l4.865-14.053h0.047
	v14.053h2.212V156.12h-3.44l-4.816,13.881h-0.049l-4.814-13.881h-3.465V173.073z M63.473,173.073h2.456v-7.837h6.29v-1.966h-6.29
	v-5.184h6.634v-1.966h-9.089V173.073z M58.092,173.073h2.457v-16.952h-2.457V173.073z"/>
<g>
	<path fill="#66747B" d="M92.165,148.552l0.011-19.414c0-2.485,1.214-4.275,3.71-4.275c2.035,0,3.61,1.492,3.61,3.613
		s-1.575,3.612-3.61,3.612c-1.15,0-1.806-0.233-2.2-0.465v4.905c0.493,0.2,1.313,0.398,2.561,0.398c4.168,0,8.502-2.884,8.502-8.418
		c0-4.84-3.677-8.484-8.764-8.484c-4.661,0-8.551,2.65-8.551,7.821v20.721L92.165,148.552z"/>
	<polygon fill="#66747B" points="85.497,120.025 78.703,120.025 76.349,129.143 76.297,129.143 73.843,120.025 66.294,120.025 
		66.294,137.209 70.913,137.209 70.913,124.934 70.963,124.934 74.194,137.209 77.551,137.209 80.682,124.934 80.732,124.934 
		80.732,137.209 85.497,137.209 	"/>
	<polygon fill="#66747B" points="41.954,113.8 53.267,107.343 64.494,113.885 53.181,120.27 	"/>
	<polygon fill="#66747B" points="47.053,117.971 53.181,121.542 59.223,118.142 62.452,120.013 53.01,125.456 43.654,120.013 	"/>
	<polygon fill="#66747B" points="48.582,123.927 53.095,126.655 57.695,124.013 60.838,125.885 53.095,130.398 45.268,125.885 	"/>
	<polygon fill="#66747B" points="50.125,129.713 53.01,131.584 56.252,129.713 59.566,131.669 53.095,135.498 46.71,131.584 	"/>
	<polygon fill="#66747B" points="50.968,135.326 53.01,136.526 55.31,135.326 58.623,137.198 53.181,140.439 47.91,137.283 	"/>
	<path fill="#CE003D" d="M179.221,137.192h2.486v-15.175h4.279v-1.989H174.94v1.989h4.28V137.192z M166.408,137.192h2.488v-7.936
		h6.368v-1.99h-6.368v-5.249h6.717v-1.989h-9.205V137.192z M160.962,137.192h2.487v-17.164h-2.487V137.192z M150.912,137.192h9.08
		v-1.99h-6.593v-15.174h-2.487V137.192z M138.127,128.612c0-2.726,0.522-6.659,3.956-6.659c3.432,0,3.979,3.934,3.979,6.659
		c0,2.727-0.547,6.659-3.979,6.659C138.649,135.271,138.127,131.339,138.127,128.612 M142.083,137.202
		c5.272,0,6.715-4.102,6.715-8.59c0-4.513-1.442-8.59-6.715-8.59c-5.275,0-6.692,4.077-6.692,8.59
		C135.391,133.1,136.808,137.202,142.083,137.202 M126.336,122.017h2.014c1.842,0,3.012,0.722,3.012,2.812
		c0,2.289-1.842,2.985-3.583,2.985h-1.443V122.017z M123.849,137.192h2.488v-7.388h1.417c2.388,0,2.687,1.119,3.383,3.581
		l1.044,3.807h2.265l-1.02-4.776c-0.373-1.79-0.623-3.283-2.96-3.78v-0.05c1.741-0.423,3.383-1.368,3.383-4.056
		c0-3.357-2.338-4.502-5.024-4.502h-4.976V137.192z M114.918,122.017h1.766c1.294,0,3.16,0.175,3.16,2.887
		c0,2.089-1.344,2.835-3.16,2.835h-1.766V122.017z M112.431,137.192h2.488v-7.463h2.213c1.742,0,5.448-0.621,5.448-4.825
		c0-4.503-3.483-4.876-6.021-4.876h-4.129V137.192z"/>
</g>
<g>
	<path fill="#66747B" d="M246.4,145.1l0.011-18.516c0-2.37,1.159-4.077,3.539-4.077c1.94,0,3.442,1.422,3.442,3.445
		s-1.502,3.445-3.442,3.445c-1.097,0-1.723-0.222-2.099-0.442v4.678c0.47,0.19,1.253,0.38,2.442,0.38
		c3.976,0,8.108-2.75,8.108-8.029c0-4.615-3.507-8.092-8.358-8.092c-4.446,0-8.155,2.528-8.155,7.46v19.763L246.4,145.1z"/>
	<polygon fill="#66747B" points="240.041,117.892 233.561,117.892 231.315,126.59 231.268,126.59 228.927,117.892 221.726,117.892 
		221.726,134.282 226.132,134.282 226.132,122.575 226.179,122.575 229.261,134.282 232.463,134.282 235.449,122.575 
		235.496,122.575 235.496,134.282 240.041,134.282 	"/>
	<polygon fill="#66747B" points="198.512,111.955 209.302,105.797 220.01,112.037 209.22,118.127 	"/>
	<polygon fill="#66747B" points="203.375,115.933 209.22,119.34 214.982,116.097 218.062,117.882 209.056,123.072 200.133,117.882 	
		"/>
	<polygon fill="#66747B" points="204.833,121.614 209.138,124.217 213.524,121.696 216.522,123.481 209.138,127.786 
		201.672,123.481 	"/>
	<polygon fill="#66747B" points="206.304,127.133 209.057,128.917 212.149,127.133 215.31,128.999 209.138,132.65 203.048,128.917 	
		"/>
	<polygon fill="#66747B" points="207.108,132.486 209.057,133.631 211.25,132.486 214.41,134.271 209.22,137.363 204.192,134.353 	
		"/>
	<path fill="#CE003D" d="M296.201,120.078h0.048l2.254,7.616h-4.674L296.201,120.078z M289.179,134.265h2.515l1.59-4.674h5.86
		l1.613,4.674h2.515l-5.6-16.37h-2.918L289.179,134.265z M288.491,124.863h-5.861v1.841h3.489v5.109
		c-0.167,0.229-1.329,0.621-2.776,0.621c-3.772,0-4.224-3.82-4.224-6.835c0-2.877,0.713-5.868,3.795-5.868
		c2.065,0,2.849,1.312,2.849,2.67h2.634c0-3.062-2.492-4.511-5.458-4.511c-4.649,0-6.429,3.336-6.429,7.709
		c0,6.145,2.681,8.676,6.904,8.676c2.705,0,4.579-1.128,5.077-1.495V124.863z M270.721,124.471c-1.21-0.667-2.658-1.427-2.658-2.669
		c0-1.336,1.092-2.071,2.706-2.071c1.66,0,3.535,0.69,3.843,0.782v-2.163c-0.546-0.138-2.158-0.46-3.725-0.46
		c-3.061,0-5.434,1.266-5.434,4.096c0,2.439,2.041,3.337,3.559,4.188l1.495,0.852c1.281,0.736,2.657,1.403,2.657,3.062
		c0,1.726-1.565,2.347-3.107,2.347c-1.827,0-3.393-0.644-4.343-1.174v2.394c0.499,0.161,2.207,0.621,4.152,0.621
		c3.369,0,5.907-1.45,5.907-4.51c0-2.509-1.85-3.498-3.439-4.373L270.721,124.471z"/>
</g>
<g>
	<path fill="#66747B" d="M363.593,145.895l0.012-19.977c0-2.558,1.25-4.4,3.817-4.4c2.094,0,3.715,1.535,3.715,3.719
		c0,2.183-1.621,3.717-3.715,3.717c-1.184,0-1.858-0.239-2.264-0.479v5.049c0.507,0.204,1.352,0.409,2.635,0.409
		c4.289,0,8.749-2.968,8.749-8.663c0-4.979-3.784-8.73-9.019-8.73c-4.797,0-8.799,2.729-8.799,8.049v21.321L363.593,145.895z"/>
	<polygon fill="#66747B" points="356.731,116.541 349.739,116.541 347.317,125.923 347.265,125.923 344.739,116.541 
		336.971,116.541 336.971,134.223 341.724,134.223 341.724,121.592 341.775,121.592 345.1,134.223 348.555,134.223 351.776,121.592 
		351.828,121.592 351.828,134.223 356.731,134.223 	"/>
	<polygon fill="#66747B" points="311.925,110.134 323.566,103.49 335.119,110.222 323.478,116.793 	"/>
	<polygon fill="#66747B" points="317.172,114.427 323.478,118.101 329.695,114.603 333.018,116.529 323.301,122.129 
		313.674,116.529 	"/>
	<polygon fill="#66747B" points="318.745,120.555 323.389,123.363 328.122,120.643 331.356,122.57 323.389,127.214 315.334,122.57 	
		"/>
	<polygon fill="#66747B" points="320.331,126.51 323.302,128.434 326.639,126.51 330.048,128.522 323.389,132.462 316.819,128.434 	
		"/>
	<polygon fill="#66747B" points="321.2,132.286 323.302,133.52 325.668,132.286 329.078,134.212 323.478,137.548 318.054,134.3 	"/>
	<path fill="#CE003D" d="M410.692,134.206h9.342v-2.049h-6.783v-15.613h-2.559V134.206z M402.705,134.206h2.561v-15.615h4.402
		v-2.047h-11.365v2.047h4.402V134.206z M391.976,118.898h0.051l2.432,8.217h-5.043L391.976,118.898z M384.399,134.206h2.712
		l1.716-5.043h6.321l1.741,5.043h2.713l-6.04-17.662h-3.149L384.399,134.206z"/>
</g>
<g>
	<path fill="#CE003D" d="M-8.718,137.619v-16.267h2.36v14.379h6.239v1.888H-8.718z"/>
	<path fill="#CE003D" d="M1.747,137.619v-16.267h2.36v16.267H1.747z"/>
	<path fill="#CE003D" d="M7.849,137.619v-16.267h8.726v1.888h-6.366v4.973h6.033v1.889h-6.033v7.517H7.849z"/>
	<path fill="#CE003D" d="M20.927,137.619V123.24h-4.052v-1.888h10.464v1.888h-4.052v14.379H20.927z"/>
	<path fill="#CE003D" d="M33.521,127.834l1.6,0.943c1.129,0.668,1.893,1.209,2.291,1.623c0.752,0.776,1.129,1.728,1.129,2.855
		c0,1.512-0.561,2.674-1.681,3.487c-1.044,0.761-2.441,1.14-4.191,1.14c-1.48,0-2.858-0.215-4.132-0.644v-2.452
		c1.397,0.805,2.835,1.209,4.316,1.209c0.868,0,1.574-0.18,2.118-0.542c0.652-0.422,0.979-1.044,0.979-1.864
		c0-0.746-0.283-1.386-0.852-1.923c-0.276-0.27-0.875-0.676-1.795-1.221l-1.485-0.863c-1.229-0.722-2.004-1.236-2.326-1.543
		c-0.805-0.752-1.209-1.668-1.209-2.75c0-1.39,0.519-2.453,1.555-3.189c0.951-0.676,2.233-1.013,3.845-1.013
		c1.258,0,2.491,0.158,3.695,0.473v2.222c-1.734-0.537-3.005-0.806-3.811-0.806c-0.821,0-1.47,0.184-1.946,0.552
		c-0.499,0.376-0.748,0.901-0.748,1.577c0,0.553,0.292,1.078,0.875,1.578C32.032,126.928,32.622,127.312,33.521,127.834z"/>
</g>
</svg>
