<?xml version="1.0" encoding="utf-8"?>
<!-- Generator: Adobe Illustrator 16.0.0, SVG Export Plug-In . SVG Version: 6.00 Build 0)  -->
<!DOCTYPE svg PUBLIC "-//W3C//DTD SVG 1.1//EN" "http://www.w3.org/Graphics/SVG/1.1/DTD/svg11.dtd">
<svg version="1.1" id="Capa_1" xmlns="http://www.w3.org/2000/svg" xmlns:xlink="http://www.w3.org/1999/xlink" x="0px" y="0px"
	 width="509.5px" height="84.336px" viewBox="0 0 509.5 84.336" enable-background="new 0 0 509.5 84.336" xml:space="preserve">
<g>
	<g>
		<g>
			<polygon fill="#EDEDED" points="353.293,0.939 350.886,0.939 350.383,3.346 352.792,3.346 			"/>
			<polygon fill="#EDEDED" points="356.721,0.937 354.316,0.937 353.812,3.34 356.218,3.34 			"/>
			<polygon fill="#EDEDED" points="360.194,0.937 357.786,0.937 357.281,3.34 359.687,3.34 			"/>
			<polygon fill="#EDEDED" points="363.619,0.931 361.213,0.931 360.713,3.338 363.116,3.338 			"/>
			<polygon fill="#EDEDED" points="367.048,0.981 364.64,0.981 364.138,3.388 366.543,3.388 			"/>
			<polygon fill="#EDEDED" points="370.476,0.979 368.072,0.979 367.565,3.384 369.972,3.384 			"/>
			<polygon fill="#EDEDED" points="373.944,0.979 371.538,0.979 371.037,3.384 373.444,3.384 			"/>
			<polygon fill="#EDEDED" points="349.259,4.299 346.853,4.299 346.346,6.705 348.753,6.705 			"/>
			<polygon fill="#EDEDED" points="352.646,4.266 350.24,4.266 349.74,6.671 352.146,6.671 			"/>
			<polygon fill="#EDEDED" points="356.073,4.263 353.669,4.263 353.165,6.668 355.573,6.668 			"/>
			<polygon fill="#EDEDED" points="359.545,4.263 357.141,4.263 356.638,6.668 359.043,6.668 			"/>
			<polygon fill="#EDEDED" points="362.975,4.259 360.567,4.259 360.065,6.665 362.473,6.665 			"/>
			<polygon fill="#EDEDED" points="366.403,4.309 363.996,4.309 363.492,6.715 365.9,6.715 			"/>
			<polygon fill="#EDEDED" points="369.829,4.306 367.425,4.306 366.921,6.71 369.326,6.71 			"/>
			<polygon fill="#EDEDED" points="348.578,7.576 346.172,7.576 345.668,9.981 348.074,9.981 			"/>
			<polygon fill="#EDEDED" points="358.937,7.595 356.531,7.595 356.027,10.001 358.434,10.001 			"/>
			<polygon fill="#EDEDED" points="357.83,14.071 355.423,14.071 354.922,16.478 357.327,16.478 			"/>
			<polygon fill="#EDEDED" points="362.293,7.536 359.887,7.536 359.383,9.942 361.79,9.942 			"/>
			<polygon fill="#EDEDED" points="361.752,10.827 359.345,10.827 358.842,13.235 361.246,13.235 			"/>
			<polygon fill="#EDEDED" points="361.205,14.119 358.801,14.119 358.299,16.525 360.704,16.525 			"/>
			<polygon fill="#EDEDED" points="365.132,10.909 362.725,10.909 362.224,13.315 364.631,13.315 			"/>
			<polygon fill="#EDEDED" points="369.167,7.627 366.761,7.627 366.258,10.032 368.664,10.032 			"/>
			<polygon fill="#EDEDED" points="373.378,4.309 370.972,4.309 370.467,6.715 372.874,6.715 			"/>
			<polygon fill="#EDEDED" points="376.81,4.4 374.404,4.4 373.9,6.806 376.305,6.806 			"/>
			<polygon fill="#EDEDED" points="368.539,10.939 366.132,10.939 365.627,13.345 368.034,13.345 			"/>
			<polygon fill="#EDEDED" points="365.722,7.586 363.316,7.586 362.813,9.994 365.218,9.994 			"/>
			<polygon fill="#EDEDED" points="372.62,7.582 370.213,7.582 369.711,9.988 372.117,9.988 			"/>
			<polygon fill="#EDEDED" points="372.935,13.442 370.529,13.442 370.025,15.849 372.432,15.849 			"/>
			<polygon fill="#EDEDED" points="351.321,10.871 348.914,10.871 348.413,13.277 350.82,13.277 			"/>
			<polygon fill="#EDEDED" points="375.104,17.711 372.698,17.711 372.195,20.118 374.6,20.118 			"/>
		</g>
		<g>
			<g>
				<polygon fill="#EDEDED" points="327.925,7.58 325.519,7.58 325.017,9.986 327.422,9.986 				"/>
				<polygon fill="#EDEDED" points="321.96,20.747 319.555,20.747 319.055,23.153 321.459,23.153 				"/>
				<polygon fill="#EDEDED" points="326.095,17.518 323.689,17.518 323.185,19.924 325.591,19.924 				"/>
				<polygon fill="#EDEDED" points="325.456,20.881 323.053,20.881 322.546,23.289 324.954,23.289 				"/>
				<polygon fill="#EDEDED" points="324.635,24.069 322.229,24.069 321.723,26.476 324.133,26.476 				"/>
				<polygon fill="#EDEDED" points="324.003,27.351 321.597,27.351 321.094,29.757 323.499,29.757 				"/>
				<polygon fill="#EDEDED" points="319.932,30.748 317.527,30.748 317.024,33.153 319.431,33.153 				"/>
				<polygon fill="#EDEDED" points="327.621,43.873 325.218,43.873 324.714,46.279 327.12,46.279 				"/>
				<polygon fill="#EDEDED" points="345.151,7.579 342.743,7.579 342.242,9.986 344.647,9.986 				"/>
				<polygon fill="#EDEDED" points="330.751,10.864 328.344,10.864 327.84,13.271 330.246,13.271 				"/>
				<polygon fill="#EDEDED" points="334.176,10.86 331.771,10.86 331.271,13.267 333.676,13.267 				"/>
				<polygon fill="#EDEDED" points="337.606,10.911 335.198,10.911 334.697,13.317 337.102,13.317 				"/>
				<polygon fill="#EDEDED" points="341.034,10.906 338.628,10.906 338.122,13.313 340.531,13.313 				"/>
				<polygon fill="#EDEDED" points="344.503,10.906 342.097,10.906 341.596,13.313 344.001,13.313 				"/>
				<polygon fill="#EDEDED" points="330.129,14.167 327.722,14.167 327.218,16.575 329.624,16.575 				"/>
				<polygon fill="#EDEDED" points="329.53,17.501 327.123,17.501 326.618,19.908 329.028,19.908 				"/>
				<polygon fill="#EDEDED" points="328.932,20.837 326.523,20.837 326.022,23.243 328.426,23.243 				"/>
				<polygon fill="#EDEDED" points="333.619,14.071 331.212,14.071 330.709,16.478 333.115,16.478 				"/>
				<polygon fill="#EDEDED" points="332.973,17.372 330.566,17.372 330.064,19.778 332.473,19.778 				"/>
				<polygon fill="#EDEDED" points="339.137,20.659 336.73,20.659 336.225,23.065 338.633,23.065 				"/>
				<polygon fill="#EDEDED" points="343.345,17.448 340.94,17.448 340.433,19.856 342.84,19.856 				"/>
				<polygon fill="#EDEDED" points="342.465,20.741 340.059,20.741 339.554,23.147 341.961,23.147 				"/>
				<polygon fill="#EDEDED" points="332.353,20.736 329.947,20.736 329.444,23.142 331.851,23.142 				"/>
				<polygon fill="#EDEDED" points="345.88,20.788 343.476,20.788 342.971,23.196 345.376,23.196 				"/>
				<polygon fill="#EDEDED" points="328.186,24.123 325.779,24.123 325.277,26.531 327.68,26.531 				"/>
				<polygon fill="#EDEDED" points="327.499,27.354 325.095,27.354 324.594,29.759 326.999,29.759 				"/>
				<polygon fill="#EDEDED" points="323.431,30.75 321.025,30.75 320.52,33.158 322.928,33.158 				"/>
				<polygon fill="#EDEDED" points="331.613,24.076 329.204,24.076 328.701,26.483 331.109,26.483 				"/>
				<polygon fill="#EDEDED" points="335.05,24.058 332.643,24.058 332.142,26.464 334.547,26.464 				"/>
				<polygon fill="#EDEDED" points="349.255,20.831 346.85,20.831 346.344,23.237 348.751,23.237 				"/>
				<polygon fill="#EDEDED" points="338.475,23.977 336.069,23.977 335.566,26.385 337.973,26.385 				"/>
				<polygon fill="#EDEDED" points="330.945,27.296 328.539,27.296 328.036,29.701 330.442,29.701 				"/>
				<polygon fill="#EDEDED" points="326.875,30.693 324.469,30.693 323.965,33.1 326.371,33.1 				"/>
				<polygon fill="#EDEDED" points="330.285,30.722 327.878,30.722 327.373,33.13 329.781,33.13 				"/>
				<polygon fill="#EDEDED" points="319.255,34.031 316.85,34.031 316.35,36.437 318.755,36.437 				"/>
				<polygon fill="#EDEDED" points="322.734,34.034 320.326,34.034 319.823,36.443 322.231,36.443 				"/>
				<polygon fill="#EDEDED" points="326.209,33.977 323.801,33.977 323.3,36.382 325.705,36.382 				"/>
				<polygon fill="#EDEDED" points="329.589,33.977 327.183,33.977 326.679,36.382 329.086,36.382 				"/>
				<polygon fill="#EDEDED" points="328.739,37.121 326.334,37.121 325.83,39.526 328.237,39.526 				"/>
				<polygon fill="#EDEDED" points="333.262,41.961 330.855,41.961 330.354,44.366 332.759,44.366 				"/>
				<polygon fill="#EDEDED" points="334.41,27.306 332.004,27.306 331.501,29.711 333.907,29.711 				"/>
				<polygon fill="#EDEDED" points="341.836,24.057 339.428,24.057 338.923,26.462 341.331,26.462 				"/>
				<polygon fill="#EDEDED" points="333.75,30.736 331.344,30.736 330.84,33.142 333.245,33.142 				"/>
				<polygon fill="#EDEDED" points="337.898,27.226 335.491,27.226 334.989,29.632 337.394,29.632 				"/>
				<polygon fill="#EDEDED" points="303.27,10.864 300.863,10.864 300.357,13.269 302.764,13.269 				"/>
				<polygon fill="#EDEDED" points="306.696,10.86 304.29,10.86 303.787,13.266 306.192,13.266 				"/>
				<polygon fill="#EDEDED" points="310.123,10.909 307.716,10.909 307.214,13.315 309.62,13.315 				"/>
				<polygon fill="#EDEDED" points="299.124,14.138 296.717,14.138 296.214,16.542 298.619,16.542 				"/>
				<polygon fill="#EDEDED" points="302.596,14.138 300.19,14.138 299.687,16.542 302.093,16.542 				"/>
				<polygon fill="#EDEDED" points="306.022,14.132 303.615,14.132 303.115,16.539 305.521,16.539 				"/>
				<polygon fill="#EDEDED" points="309.45,14.183 307.041,14.183 306.54,16.589 308.948,16.589 				"/>
				<polygon fill="#EDEDED" points="313.552,10.906 311.144,10.906 310.64,13.311 313.049,13.311 				"/>
				<polygon fill="#EDEDED" points="317.021,10.906 314.615,10.906 314.112,13.311 316.518,13.311 				"/>
				<polygon fill="#EDEDED" points="320.451,10.9 318.043,10.9 317.54,13.308 319.945,13.308 				"/>
				<polygon fill="#EDEDED" points="323.851,10.868 321.444,10.868 320.942,13.274 323.35,13.274 				"/>
				<polygon fill="#EDEDED" points="316.35,14.18 313.943,14.18 313.44,16.586 315.845,16.586 				"/>
				<polygon fill="#EDEDED" points="319.779,14.176 317.371,14.176 316.867,16.581 319.275,16.581 				"/>
				<polygon fill="#EDEDED" points="323.243,14.142 320.838,14.142 320.333,16.548 322.74,16.548 				"/>
				<polygon fill="#EDEDED" points="327.279,10.864 324.872,10.864 324.369,13.271 326.776,13.271 				"/>
				<polygon fill="#EDEDED" points="326.715,14.161 324.308,14.161 323.805,16.566 326.212,16.566 				"/>
				<polygon fill="#EDEDED" points="312.232,17.505 309.827,17.505 309.324,19.912 311.73,19.912 				"/>
				<polygon fill="#EDEDED" points="315.703,17.505 313.297,17.505 312.795,19.912 315.199,19.912 				"/>
				<polygon fill="#EDEDED" points="319.132,17.501 316.725,17.501 316.221,19.909 318.63,19.909 				"/>
				<polygon fill="#EDEDED" points="322.597,17.469 320.191,17.469 319.69,19.875 322.097,19.875 				"/>
				<polygon fill="#EDEDED" points="311.553,20.784 309.148,20.784 308.643,23.189 311.051,23.189 				"/>
				<polygon fill="#EDEDED" points="315.023,20.784 312.616,20.784 312.115,23.189 314.521,23.189 				"/>
				<polygon fill="#EDEDED" points="318.454,20.778 316.046,20.778 315.542,23.187 317.948,23.187 				"/>
				<polygon fill="#EDEDED" points="307.479,24.113 305.074,24.113 304.569,26.521 306.976,26.521 				"/>
				<polygon fill="#EDEDED" points="310.907,24.11 308.501,24.11 307.997,26.516 310.404,26.516 				"/>
				<polygon fill="#EDEDED" points="314.377,24.11 311.971,24.11 311.468,26.516 313.876,26.516 				"/>
				<polygon fill="#EDEDED" points="317.805,24.107 315.4,24.107 314.899,26.513 317.302,26.513 				"/>
				<polygon fill="#EDEDED" points="321.205,24.073 318.8,24.073 318.298,26.48 320.702,26.48 				"/>
				<polygon fill="#EDEDED" points="306.848,27.417 304.441,27.417 303.938,29.823 306.344,29.823 				"/>
				<polygon fill="#EDEDED" points="310.277,27.414 307.871,27.414 307.366,29.82 309.774,29.82 				"/>
				<polygon fill="#EDEDED" points="313.746,27.414 311.339,27.414 310.839,29.82 313.242,29.82 				"/>
				<polygon fill="#EDEDED" points="317.175,27.41 314.769,27.41 314.265,29.817 316.671,29.817 				"/>
				<polygon fill="#EDEDED" points="320.576,27.376 318.17,27.376 317.668,29.782 320.074,29.782 				"/>
				<polygon fill="#EDEDED" points="306.201,30.743 303.795,30.743 303.292,33.15 305.699,33.15 				"/>
				<polygon fill="#EDEDED" points="309.629,30.74 307.223,30.74 306.721,33.147 309.128,33.147 				"/>
				<polygon fill="#EDEDED" points="313.103,30.74 310.695,30.74 310.19,33.147 312.597,33.147 				"/>
				<polygon fill="#EDEDED" points="316.53,30.736 314.122,30.736 313.619,33.143 316.029,33.143 				"/>
				<polygon fill="#EDEDED" points="308.95,34.017 306.543,34.017 306.041,36.422 308.448,36.422 				"/>
				<polygon fill="#EDEDED" points="312.42,34.017 310.016,34.017 309.51,36.422 311.916,36.422 				"/>
				<polygon fill="#EDEDED" points="315.85,34.014 313.443,34.014 312.938,36.42 315.346,36.42 				"/>
				<polygon fill="#EDEDED" points="308.302,37.343 305.896,37.343 305.396,39.752 307.802,39.752 				"/>
				<polygon fill="#EDEDED" points="311.777,37.343 309.371,37.343 308.864,39.752 311.273,39.752 				"/>
				<polygon fill="#EDEDED" points="315.203,37.341 312.797,37.341 312.295,39.747 314.699,39.747 				"/>
				<polygon fill="#EDEDED" points="314.541,40.584 312.135,40.584 311.632,42.993 314.037,42.993 				"/>
				<polygon fill="#EDEDED" points="317.942,40.552 315.534,40.552 315.032,42.958 317.438,42.958 				"/>
				<polygon fill="#EDEDED" points="324.197,43.877 321.79,43.877 321.284,46.282 323.692,46.282 				"/>
				<polygon fill="#EDEDED" points="332.077,4.259 329.671,4.259 329.166,6.665 331.573,6.665 				"/>
				<polygon fill="#EDEDED" points="338.93,4.306 336.523,4.306 336.022,6.713 338.429,6.713 				"/>
				<polygon fill="#EDEDED" points="337.44,0.537 335.034,0.537 334.53,2.943 336.936,2.943 				"/>
				<polygon fill="#EDEDED" points="331.396,7.536 328.99,7.536 328.486,9.944 330.893,9.944 				"/>
				<polygon fill="#EDEDED" points="334.825,7.533 332.419,7.533 331.915,9.939 334.322,9.939 				"/>
				<polygon fill="#EDEDED" points="341.679,7.579 339.274,7.579 338.771,9.986 341.175,9.986 				"/>
				<polygon fill="#EDEDED" points="295.051,17.467 292.645,17.467 292.141,19.873 294.548,19.873 				"/>
				<polygon fill="#EDEDED" points="312.877,14.18 310.473,14.18 309.971,16.586 312.376,16.586 				"/>
				<polygon fill="#EDEDED" points="298.479,17.463 296.073,17.463 295.569,19.869 297.974,19.869 				"/>
			</g>
			<g>
				<polygon fill="#EDEDED" points="333.799,47.198 331.392,47.198 330.89,49.603 333.293,49.603 				"/>
				<polygon fill="#EDEDED" points="337.271,47.198 334.864,47.198 334.359,49.603 336.766,49.603 				"/>
				<polygon fill="#EDEDED" points="340.698,47.191 338.29,47.191 337.787,49.601 340.194,49.601 				"/>
				<polygon fill="#EDEDED" points="326.295,50.478 323.892,50.478 323.39,52.882 325.795,52.882 				"/>
				<polygon fill="#EDEDED" points="333.154,50.524 330.744,50.524 330.241,52.929 332.651,52.929 				"/>
				<polygon fill="#EDEDED" points="336.622,50.524 334.218,50.524 333.715,52.929 336.121,52.929 				"/>
				<polygon fill="#EDEDED" points="340.054,50.521 337.645,50.521 337.141,52.926 339.547,52.926 				"/>
				<polygon fill="#EDEDED" points="343.44,50.485 341.034,50.485 340.532,52.894 342.939,52.894 				"/>
				<polygon fill="#EDEDED" points="346.869,50.482 344.461,50.482 343.96,52.889 346.367,52.889 				"/>
				<polygon fill="#EDEDED" points="325.646,53.743 323.24,53.743 322.739,56.148 325.145,56.148 				"/>
				<polygon fill="#EDEDED" points="329.074,53.792 326.669,53.792 326.164,56.197 328.572,56.197 				"/>
				<polygon fill="#EDEDED" points="332.504,53.789 330.097,53.789 329.593,56.194 331.999,56.194 				"/>
				<polygon fill="#EDEDED" points="335.973,53.789 333.566,53.789 333.065,56.194 335.472,56.194 				"/>
				<polygon fill="#EDEDED" points="339.402,53.786 336.995,53.786 336.491,56.191 338.898,56.191 				"/>
				<polygon fill="#EDEDED" points="342.792,53.755 340.385,53.755 339.882,56.159 342.287,56.159 				"/>
				<polygon fill="#EDEDED" points="346.221,53.749 343.813,53.749 343.309,56.156 345.714,56.156 				"/>
				<polygon fill="#EDEDED" points="349.69,53.749 347.283,53.749 346.781,56.156 349.187,56.156 				"/>
				<polygon fill="#EDEDED" points="353.118,53.746 350.71,53.746 350.206,56.154 352.614,56.154 				"/>
				<polygon fill="#EDEDED" points="328.428,57.12 326.023,57.12 325.519,59.528 327.925,59.528 				"/>
				<polygon fill="#EDEDED" points="331.858,57.117 329.451,57.117 328.948,59.522 331.356,59.522 				"/>
				<polygon fill="#EDEDED" points="335.329,57.117 332.92,57.117 332.419,59.522 334.825,59.522 				"/>
				<polygon fill="#EDEDED" points="338.756,57.113 336.352,57.113 335.845,59.52 338.253,59.52 				"/>
				<polygon fill="#EDEDED" points="342.146,57.082 339.738,57.082 339.237,59.488 341.642,59.488 				"/>
				<polygon fill="#EDEDED" points="345.573,57.079 343.166,57.079 342.663,59.485 345.071,59.485 				"/>
				<polygon fill="#EDEDED" points="349.043,57.079 346.637,57.079 346.135,59.485 348.541,59.485 				"/>
				<polygon fill="#EDEDED" points="352.474,57.074 350.067,57.074 349.562,59.479 351.97,59.479 				"/>
				<polygon fill="#EDEDED" points="355.9,57.123 353.495,57.123 352.99,59.528 355.397,59.528 				"/>
				<polygon fill="#EDEDED" points="331.177,60.393 328.774,60.393 328.266,62.802 330.674,62.802 				"/>
				<polygon fill="#EDEDED" points="334.646,60.393 332.24,60.393 331.739,62.802 334.143,62.802 				"/>
				<polygon fill="#EDEDED" points="338.076,60.391 335.669,60.391 335.165,62.796 337.574,62.796 				"/>
				<polygon fill="#EDEDED" points="341.465,60.358 339.059,60.358 338.556,62.765 340.962,62.765 				"/>
				<polygon fill="#EDEDED" points="344.896,60.356 342.487,60.356 341.983,62.762 344.391,62.762 				"/>
				<polygon fill="#EDEDED" points="348.364,60.356 345.957,60.356 345.456,62.762 347.86,62.762 				"/>
				<polygon fill="#EDEDED" points="351.792,60.35 349.385,60.35 348.882,62.756 351.287,62.756 				"/>
				<polygon fill="#EDEDED" points="355.22,60.399 352.816,60.399 352.311,62.808 354.716,62.808 				"/>
				<polygon fill="#EDEDED" points="334.003,63.722 331.597,63.722 331.093,66.128 333.498,66.128 				"/>
				<polygon fill="#EDEDED" points="337.432,63.719 335.024,63.719 334.522,66.124 336.927,66.124 				"/>
				<polygon fill="#EDEDED" points="340.819,63.688 338.413,63.688 337.911,66.093 340.316,66.093 				"/>
				<polygon fill="#EDEDED" points="344.247,63.682 341.842,63.682 341.337,66.09 343.743,66.09 				"/>
				<polygon fill="#EDEDED" points="347.719,63.682 345.312,63.682 344.809,66.09 347.215,66.09 				"/>
				<polygon fill="#EDEDED" points="351.145,63.679 348.74,63.679 348.238,66.084 350.644,66.084 				"/>
				<polygon fill="#EDEDED" points="336.731,66.936 334.323,66.936 333.822,69.34 336.23,69.34 				"/>
				<polygon fill="#EDEDED" points="340.201,66.936 337.795,66.936 337.294,69.34 339.698,69.34 				"/>
				<polygon fill="#EDEDED" points="343.631,66.929 341.225,66.929 340.721,69.335 343.126,69.335 				"/>
				<polygon fill="#EDEDED" points="347.058,66.981 344.653,66.981 344.15,69.386 346.556,69.386 				"/>
				<polygon fill="#EDEDED" points="350.486,66.975 348.078,66.975 347.576,69.384 349.982,69.384 				"/>
				<polygon fill="#EDEDED" points="336.084,70.263 333.68,70.263 333.176,72.665 335.581,72.665 				"/>
				<polygon fill="#EDEDED" points="339.556,70.263 337.15,70.263 336.644,72.665 339.053,72.665 				"/>
				<polygon fill="#EDEDED" points="342.983,70.258 340.577,70.258 340.077,72.663 342.481,72.663 				"/>
				<polygon fill="#EDEDED" points="346.413,70.307 344.004,70.307 343.501,72.715 345.908,72.715 				"/>
				<polygon fill="#EDEDED" points="349.84,70.304 347.433,70.304 346.929,72.709 349.336,72.709 				"/>
				<polygon fill="#EDEDED" points="335.404,73.54 332.999,73.54 332.497,75.945 334.904,75.945 				"/>
				<polygon fill="#EDEDED" points="338.878,73.54 336.472,73.54 335.965,75.945 338.372,75.945 				"/>
				<polygon fill="#EDEDED" points="342.304,73.537 339.899,73.537 339.395,75.942 341.802,75.942 				"/>
				<polygon fill="#EDEDED" points="345.731,73.583 343.326,73.583 342.823,75.987 345.231,75.987 				"/>
				<polygon fill="#EDEDED" points="338.232,76.862 335.825,76.862 335.32,79.268 337.726,79.268 				"/>
				<polygon fill="#EDEDED" points="341.657,76.859 339.252,76.859 338.749,79.265 341.155,79.265 				"/>
				<polygon fill="#EDEDED" points="341.005,80.076 338.598,80.076 338.097,82.48 340.502,82.48 				"/>
				<polygon fill="#EDEDED" points="329.723,50.527 327.318,50.527 326.816,52.936 329.221,52.936 				"/>
				<polygon fill="#EDEDED" points="330.371,47.2 327.964,47.2 327.461,49.605 329.867,49.605 				"/>
				<polygon fill="#EDEDED" points="343.83,83.438 341.424,83.438 340.924,85.844 343.328,85.844 				"/>
				<polygon fill="#EDEDED" points="344.477,80.076 342.072,80.076 341.567,82.48 343.974,82.48 				"/>
			</g>
		</g>
	</g>
	<g>
		<polygon fill="#EDEDED" points="366.618,37.183 364.211,37.183 363.708,39.588 366.115,39.588 		"/>
		<polygon fill="#EDEDED" points="365.854,40.456 363.446,40.456 362.944,42.862 365.349,42.862 		"/>
		<polygon fill="#EDEDED" points="365.228,44 362.823,44 362.318,46.406 364.726,46.406 		"/>
		<g>
			<polygon fill="#EDEDED" points="372.928,27.268 370.521,27.268 370.017,29.673 372.424,29.673 			"/>
			<polygon fill="#EDEDED" points="385.701,10.868 383.296,10.868 382.794,13.274 385.2,13.274 			"/>
			<polygon fill="#EDEDED" points="389.129,10.865 386.724,10.865 386.22,13.271 388.626,13.271 			"/>
			<polygon fill="#EDEDED" points="392.56,10.914 390.154,10.914 389.647,13.321 392.055,13.321 			"/>
			<polygon fill="#EDEDED" points="371.248,20.86 368.844,20.86 368.34,23.267 370.744,23.267 			"/>
			<polygon fill="#EDEDED" points="395.986,10.911 393.58,10.911 393.077,13.317 395.483,13.317 			"/>
			<polygon fill="#EDEDED" points="399.544,10.975 397.138,10.975 396.637,13.382 399.042,13.382 			"/>
			<polygon fill="#EDEDED" points="377.472,20.936 375.065,20.936 374.561,23.342 376.968,23.342 			"/>
			<polygon fill="#EDEDED" points="402.922,10.958 400.517,10.958 400.011,13.364 402.42,13.364 			"/>
			<polygon fill="#EDEDED" points="380.809,20.872 378.403,20.872 377.898,23.278 380.305,23.278 			"/>
			<polygon fill="#EDEDED" points="382.502,14.5 380.096,14.5 379.591,16.906 381.997,16.906 			"/>
			<polygon fill="#EDEDED" points="385.764,14.646 383.359,14.646 382.856,17.054 385.264,17.054 			"/>
			<polygon fill="#EDEDED" points="388.976,14.54 386.569,14.54 386.066,16.948 388.473,16.948 			"/>
			<polygon fill="#EDEDED" points="376.883,24.168 374.477,24.168 373.973,26.575 376.38,26.575 			"/>
			<polygon fill="#EDEDED" points="384.121,20.907 381.716,20.907 381.213,23.314 383.617,23.314 			"/>
			<polygon fill="#EDEDED" points="387.468,20.972 385.063,20.972 384.558,23.377 386.965,23.377 			"/>
			<polygon fill="#EDEDED" points="392.304,14.479 389.899,14.479 389.394,16.885 391.801,16.885 			"/>
			<polygon fill="#EDEDED" points="395.623,14.508 393.217,14.508 392.713,16.914 395.119,16.914 			"/>
			<polygon fill="#EDEDED" points="398.957,14.475 396.55,14.475 396.047,16.88 398.454,16.88 			"/>
			<polygon fill="#EDEDED" points="391.614,17.688 389.205,17.688 388.702,20.095 391.109,20.095 			"/>
			<polygon fill="#EDEDED" points="402.306,14.338 399.9,14.338 399.397,16.743 401.801,16.743 			"/>
			<polygon fill="#EDEDED" points="380.218,24.191 377.812,24.191 377.308,26.597 379.715,26.597 			"/>
			<polygon fill="#EDEDED" points="394.991,17.665 392.585,17.665 392.081,20.07 394.487,20.07 			"/>
			<polygon fill="#EDEDED" points="398.335,17.69 395.927,17.69 395.424,20.096 397.829,20.096 			"/>
			<polygon fill="#EDEDED" points="390.833,20.936 388.426,20.936 387.922,23.342 390.329,23.342 			"/>
			<polygon fill="#EDEDED" points="394.242,20.876 391.835,20.876 391.331,23.281 393.739,23.281 			"/>
			<polygon fill="#EDEDED" points="383.506,24.229 381.101,24.229 380.598,26.635 383.005,26.635 			"/>
			<polygon fill="#EDEDED" points="386.873,24.21 384.465,24.21 383.962,26.617 386.367,26.617 			"/>
			<polygon fill="#EDEDED" points="397.607,20.951 395.2,20.951 394.698,23.358 397.105,23.358 			"/>
			<polygon fill="#EDEDED" points="401.017,20.89 398.61,20.89 398.107,23.296 400.514,23.296 			"/>
			<polygon fill="#EDEDED" points="401.639,17.559 399.234,17.559 398.727,19.965 401.136,19.965 			"/>
			<polygon fill="#EDEDED" points="424.665,4.43 422.26,4.43 421.757,6.835 424.163,6.835 			"/>
			<polygon fill="#EDEDED" points="410.231,7.665 407.825,7.665 407.323,10.07 409.729,10.07 			"/>
			<polygon fill="#EDEDED" points="390.002,6.484 387.595,6.484 387.091,8.89 389.498,8.89 			"/>
			<polygon fill="#EDEDED" points="417.13,7.661 414.725,7.661 414.221,10.068 416.627,10.068 			"/>
			<polygon fill="#EDEDED" points="420.557,7.71 418.151,7.71 417.648,10.118 420.054,10.118 			"/>
			<polygon fill="#EDEDED" points="406.32,10.957 403.913,10.957 403.409,13.364 405.817,13.364 			"/>
			<polygon fill="#EDEDED" points="409.687,10.904 407.281,10.904 406.778,13.31 409.184,13.31 			"/>
			<polygon fill="#EDEDED" points="413.058,10.991 410.651,10.991 410.146,13.398 412.555,13.398 			"/>
			<polygon fill="#EDEDED" points="416.484,10.988 414.078,10.988 413.577,13.395 415.982,13.395 			"/>
			<polygon fill="#EDEDED" points="419.911,11.037 417.507,11.037 417.003,13.444 419.407,13.444 			"/>
			<polygon fill="#EDEDED" points="405.729,14.311 403.323,14.311 402.82,16.718 405.224,16.718 			"/>
			<polygon fill="#EDEDED" points="409.09,14.255 406.685,14.255 406.18,16.662 408.585,16.662 			"/>
			<polygon fill="#EDEDED" points="412.426,14.238 410.02,14.238 409.515,16.645 411.921,16.645 			"/>
			<polygon fill="#EDEDED" points="415.854,14.234 413.448,14.234 412.945,16.64 415.351,16.64 			"/>
			<polygon fill="#EDEDED" points="419.281,14.286 416.874,14.286 416.372,16.69 418.78,16.69 			"/>
			<polygon fill="#EDEDED" points="404.989,17.595 402.583,17.595 402.079,20.002 404.486,20.002 			"/>
			<polygon fill="#EDEDED" points="408.399,17.527 405.992,17.527 405.488,19.932 407.895,19.932 			"/>
			<polygon fill="#EDEDED" points="411.78,17.495 409.375,17.495 408.868,19.901 411.276,19.901 			"/>
			<polygon fill="#EDEDED" points="415.205,17.56 412.801,17.56 412.299,19.968 414.704,19.968 			"/>
			<polygon fill="#EDEDED" points="418.635,17.611 416.228,17.611 415.725,20.017 418.13,20.017 			"/>
			<polygon fill="#EDEDED" points="404.339,20.887 401.933,20.887 401.43,23.292 403.838,23.292 			"/>
			<polygon fill="#EDEDED" points="407.749,20.826 405.342,20.826 404.838,23.232 407.245,23.232 			"/>
			<polygon fill="#EDEDED" points="390.259,24.211 387.853,24.211 387.349,26.618 389.756,26.618 			"/>
			<polygon fill="#EDEDED" points="393.667,24.151 391.262,24.151 390.759,26.557 393.164,26.557 			"/>
			<polygon fill="#EDEDED" points="411.226,20.795 408.82,20.795 408.319,23.201 410.722,23.201 			"/>
			<polygon fill="#EDEDED" points="414.615,20.811 412.209,20.811 411.709,23.217 414.115,23.217 			"/>
			<polygon fill="#EDEDED" points="417.954,20.889 415.547,20.889 415.047,23.296 417.452,23.296 			"/>
			<polygon fill="#EDEDED" points="397.018,24.076 394.612,24.076 394.109,26.481 396.516,26.481 			"/>
			<polygon fill="#EDEDED" points="400.375,24.097 397.969,24.097 397.465,26.505 399.872,26.505 			"/>
			<polygon fill="#EDEDED" points="403.822,24.055 401.416,24.055 400.91,26.461 403.318,26.461 			"/>
			<polygon fill="#EDEDED" points="407.179,24.097 404.772,24.097 404.266,26.505 406.674,26.505 			"/>
			<polygon fill="#EDEDED" points="406.567,27.271 404.159,27.271 403.656,29.677 406.062,29.677 			"/>
			<polygon fill="#EDEDED" points="410.575,24.119 408.169,24.119 407.664,26.526 410.073,26.526 			"/>
			<polygon fill="#EDEDED" points="417.311,24.215 414.904,24.215 414.401,26.622 416.804,26.622 			"/>
			<polygon fill="#EDEDED" points="413.298,27.44 410.888,27.44 410.384,29.847 412.791,29.847 			"/>
			<polygon fill="#EDEDED" points="420.738,24.211 418.33,24.211 417.827,26.618 420.237,26.618 			"/>
			<polygon fill="#EDEDED" points="416.647,27.461 414.24,27.461 413.736,29.867 416.143,29.867 			"/>
			<polygon fill="#EDEDED" points="420.075,27.457 417.668,27.457 417.165,29.864 419.573,29.864 			"/>
			<polygon fill="#EDEDED" points="386.226,27.448 383.82,27.448 383.317,29.854 385.722,29.854 			"/>
			<polygon fill="#EDEDED" points="374.954,30.689 372.547,30.689 372.041,33.094 374.448,33.094 			"/>
			<polygon fill="#EDEDED" points="399.064,30.739 396.658,30.739 396.156,33.146 398.562,33.146 			"/>
			<polygon fill="#EDEDED" points="402.433,30.786 400.026,30.786 399.526,33.192 401.929,33.192 			"/>
			<polygon fill="#EDEDED" points="405.817,30.799 403.408,30.799 402.906,33.208 405.311,33.208 			"/>
			<polygon fill="#EDEDED" points="378.375,30.753 375.968,30.753 375.465,33.162 377.871,33.162 			"/>
			<polygon fill="#EDEDED" points="381.802,30.75 379.395,30.75 378.894,33.158 381.298,33.158 			"/>
			<polygon fill="#EDEDED" points="370.736,33.922 368.326,33.922 367.823,36.328 370.229,36.328 			"/>
			<polygon fill="#EDEDED" points="374.186,33.974 371.78,33.974 371.279,36.379 373.682,36.379 			"/>
			<polygon fill="#EDEDED" points="377.615,33.968 375.207,33.968 374.705,36.376 377.115,36.376 			"/>
			<polygon fill="#EDEDED" points="381.086,33.968 378.679,33.968 378.176,36.376 380.582,36.376 			"/>
			<polygon fill="#EDEDED" points="384.515,33.965 382.109,33.965 381.605,36.371 384.009,36.371 			"/>
			<polygon fill="#EDEDED" points="387.941,34.017 385.535,34.017 385.034,36.422 387.439,36.422 			"/>
			<polygon fill="#EDEDED" points="370.045,37.18 367.641,37.18 367.137,39.585 369.542,39.585 			"/>
			<polygon fill="#EDEDED" points="373.492,37.237 371.086,37.237 370.582,39.643 372.991,39.643 			"/>
			<polygon fill="#EDEDED" points="376.92,37.231 374.513,37.231 374.013,39.64 376.417,39.64 			"/>
			<polygon fill="#EDEDED" points="380.394,37.231 377.987,37.231 377.482,39.64 379.887,39.64 			"/>
			<polygon fill="#EDEDED" points="383.82,37.229 381.413,37.229 380.909,39.635 383.317,39.635 			"/>
			<polygon fill="#EDEDED" points="387.246,37.277 384.842,37.277 384.338,39.683 386.742,39.683 			"/>
			<polygon fill="#EDEDED" points="391.364,34.04 388.958,34.04 388.457,36.445 390.863,36.445 			"/>
			<polygon fill="#EDEDED" points="394.794,34.037 392.389,34.037 391.883,36.443 394.289,36.443 			"/>
			<polygon fill="#EDEDED" points="398.264,34.037 395.858,34.037 395.357,36.443 397.762,36.443 			"/>
			<polygon fill="#EDEDED" points="401.695,34.031 399.286,34.031 398.782,36.437 401.19,36.437 			"/>
			<polygon fill="#EDEDED" points="405.12,34.08 402.716,34.08 402.209,36.486 404.617,36.486 			"/>
			<polygon fill="#EDEDED" points="390.679,37.303 388.27,37.303 387.768,39.712 390.175,39.712 			"/>
			<polygon fill="#EDEDED" points="394.106,37.301 391.7,37.301 391.196,39.706 393.604,39.706 			"/>
			<polygon fill="#EDEDED" points="397.577,37.301 395.169,37.301 394.666,39.706 397.073,39.706 			"/>
			<polygon fill="#EDEDED" points="401.003,37.298 398.598,37.298 398.095,39.703 400.502,39.703 			"/>
			<polygon fill="#EDEDED" points="404.431,37.347 402.026,37.347 401.522,39.755 403.928,39.755 			"/>
			<polygon fill="#EDEDED" points="369.322,40.541 366.915,40.541 366.414,42.95 368.818,42.95 			"/>
			<polygon fill="#EDEDED" points="372.748,40.539 370.341,40.539 369.84,42.943 372.244,42.943 			"/>
			<polygon fill="#EDEDED" points="376.22,40.539 373.815,40.539 373.309,42.943 375.718,42.943 			"/>
			<polygon fill="#EDEDED" points="379.646,40.536 377.24,40.536 376.738,42.941 379.144,42.941 			"/>
			<polygon fill="#EDEDED" points="383.074,40.584 380.666,40.584 380.164,42.989 382.571,42.989 			"/>
			<polygon fill="#EDEDED" points="368.764,43.888 366.357,43.888 365.855,46.296 368.26,46.296 			"/>
			<polygon fill="#EDEDED" points="372.264,43.846 369.856,43.846 369.354,46.253 371.759,46.253 			"/>
			<polygon fill="#EDEDED" points="375.692,43.842 373.284,43.842 372.782,46.246 375.188,46.246 			"/>
			<polygon fill="#EDEDED" points="386.505,40.575 384.1,40.575 383.596,42.981 386,42.981 			"/>
			<polygon fill="#EDEDED" points="389.934,40.57 387.527,40.57 387.023,42.979 389.43,42.979 			"/>
			<polygon fill="#EDEDED" points="393.403,40.57 390.995,40.57 390.495,42.979 392.902,42.979 			"/>
			<polygon fill="#EDEDED" points="396.833,40.567 394.427,40.567 393.923,42.973 396.327,42.973 			"/>
			<polygon fill="#EDEDED" points="400.26,40.616 397.854,40.616 397.35,43.021 399.756,43.021 			"/>
			<polygon fill="#EDEDED" points="368.036,47.184 365.627,47.184 365.124,49.589 367.531,49.589 			"/>
			<polygon fill="#EDEDED" points="379.117,43.865 376.711,43.865 376.21,46.273 378.617,46.273 			"/>
			<polygon fill="#EDEDED" points="382.547,43.862 380.141,43.862 379.637,46.268 382.044,46.268 			"/>
			<polygon fill="#EDEDED" points="386.019,43.862 383.613,43.862 383.11,46.268 385.515,46.268 			"/>
			<polygon fill="#EDEDED" points="389.448,43.858 387.039,43.858 386.537,46.265 388.943,46.265 			"/>
			<polygon fill="#EDEDED" points="392.875,43.908 390.468,43.908 389.964,46.317 392.37,46.317 			"/>
			<polygon fill="#EDEDED" points="396.33,43.92 393.925,43.92 393.42,46.325 395.826,46.325 			"/>
			<polygon fill="#EDEDED" points="371.567,47.163 369.163,47.163 368.661,49.567 371.067,49.567 			"/>
			<polygon fill="#EDEDED" points="374.997,47.16 372.589,47.16 372.087,49.564 374.494,49.564 			"/>
			<polygon fill="#EDEDED" points="378.468,47.16 376.062,47.16 375.559,49.564 377.967,49.564 			"/>
			<polygon fill="#EDEDED" points="381.897,47.153 379.49,47.153 378.987,49.563 381.394,49.563 			"/>
			<polygon fill="#EDEDED" points="385.326,47.203 382.919,47.203 382.413,49.609 384.82,49.609 			"/>
			<polygon fill="#EDEDED" points="388.753,47.2 386.346,47.2 385.843,49.605 388.248,49.605 			"/>
			<polygon fill="#EDEDED" points="392.224,47.2 389.817,47.2 389.314,49.605 391.718,49.605 			"/>
			<polygon fill="#EDEDED" points="395.651,47.198 393.243,47.198 392.74,49.603 395.147,49.603 			"/>
			<polygon fill="#EDEDED" points="384.678,50.533 382.274,50.533 381.766,52.938 384.174,52.938 			"/>
			<polygon fill="#EDEDED" points="388.105,50.527 385.699,50.527 385.196,52.936 387.602,52.936 			"/>
			<polygon fill="#EDEDED" points="391.578,50.527 389.168,50.527 388.667,52.936 391.074,52.936 			"/>
			<polygon fill="#EDEDED" points="395.004,50.524 392.6,50.524 392.095,52.929 394.502,52.929 			"/>
			<polygon fill="#EDEDED" points="384.029,53.798 381.621,53.798 381.117,56.202 383.525,56.202 			"/>
			<polygon fill="#EDEDED" points="387.456,53.796 385.05,53.796 384.546,56.2 386.953,56.2 			"/>
			<polygon fill="#EDEDED" points="390.925,53.796 388.52,53.796 388.018,56.2 390.422,56.2 			"/>
			<polygon fill="#EDEDED" points="394.356,53.789 391.948,53.789 391.445,56.197 393.853,56.197 			"/>
			<polygon fill="#EDEDED" points="386.808,57.123 384.404,57.123 383.9,59.528 386.305,59.528 			"/>
			<polygon fill="#EDEDED" points="390.281,57.123 387.875,57.123 387.373,59.528 389.777,59.528 			"/>
			<polygon fill="#EDEDED" points="393.706,57.117 391.301,57.117 390.801,59.522 393.206,59.522 			"/>
			<polygon fill="#EDEDED" points="386.127,60.399 383.721,60.399 383.221,62.806 385.627,62.806 			"/>
			<polygon fill="#EDEDED" points="389.602,60.399 387.196,60.399 386.689,62.806 389.098,62.806 			"/>
			<polygon fill="#EDEDED" points="393.029,60.396 390.622,60.396 390.121,62.802 392.525,62.802 			"/>
			<polygon fill="#EDEDED" points="385.484,63.727 383.076,63.727 382.574,66.133 384.981,66.133 			"/>
			<polygon fill="#EDEDED" points="388.955,63.727 386.549,63.727 386.045,66.133 388.452,66.133 			"/>
			<polygon fill="#EDEDED" points="392.383,63.722 389.976,63.722 389.475,66.128 391.879,66.128 			"/>
			<polygon fill="#EDEDED" points="412.572,30.737 410.167,30.737 409.663,33.143 412.069,33.143 			"/>
			<polygon fill="#EDEDED" points="416,30.788 413.597,30.788 413.089,33.194 415.497,33.194 			"/>
			<polygon fill="#EDEDED" points="419.427,30.783 417.021,30.783 416.521,33.19 418.926,33.19 			"/>
			<polygon fill="#EDEDED" points="408.465,34.02 406.059,34.02 405.556,36.425 407.962,36.425 			"/>
			<polygon fill="#EDEDED" points="411.894,34.017 409.487,34.017 408.984,36.422 411.39,36.422 			"/>
			<polygon fill="#EDEDED" points="415.323,34.065 412.917,34.065 412.409,36.472 414.818,36.472 			"/>
			<polygon fill="#EDEDED" points="418.748,34.06 416.343,34.06 415.84,36.466 418.245,36.466 			"/>
			<polygon fill="#EDEDED" points="407.804,37.332 405.397,37.332 404.894,39.741 407.299,39.741 			"/>
			<polygon fill="#EDEDED" points="411.247,37.343 408.84,37.343 408.338,39.747 410.744,39.747 			"/>
			<polygon fill="#EDEDED" points="414.674,37.393 412.268,37.393 411.766,39.798 414.173,39.798 			"/>
			<polygon fill="#EDEDED" points="403.721,40.659 401.315,40.659 400.814,43.064 403.221,43.064 			"/>
			<polygon fill="#EDEDED" points="407.122,40.613 404.717,40.613 404.216,43.019 406.62,43.019 			"/>
			<polygon fill="#EDEDED" points="410.575,40.664 408.168,40.664 407.662,43.07 410.069,43.07 			"/>
			<polygon fill="#EDEDED" points="414.025,40.659 411.618,40.659 411.116,43.067 413.522,43.067 			"/>
			<polygon fill="#EDEDED" points="399.625,43.942 397.219,43.942 396.714,46.352 399.119,46.352 			"/>
			<polygon fill="#EDEDED" points="403.051,43.939 400.646,43.939 400.144,46.346 402.55,46.346 			"/>
			<polygon fill="#EDEDED" points="406.538,43.885 404.129,43.885 403.627,46.291 406.033,46.291 			"/>
			<polygon fill="#EDEDED" points="398.948,47.223 396.538,47.223 396.035,49.629 398.442,49.629 			"/>
			<polygon fill="#EDEDED" points="402.373,47.218 399.967,47.218 399.463,49.626 401.87,49.626 			"/>
			<polygon fill="#EDEDED" points="405.843,47.218 403.437,47.218 402.936,49.626 405.34,49.626 			"/>
			<polygon fill="#EDEDED" points="409.273,47.215 406.865,47.215 406.362,49.624 408.768,49.624 			"/>
			<polygon fill="#EDEDED" points="412.7,47.264 410.292,47.264 409.788,49.672 412.198,49.672 			"/>
			<polygon fill="#EDEDED" points="398.299,50.551 395.896,50.551 395.388,52.955 397.796,52.955 			"/>
			<polygon fill="#EDEDED" points="401.726,50.544 399.322,50.544 398.818,52.953 401.224,52.953 			"/>
			<polygon fill="#EDEDED" points="405.198,50.544 402.79,50.544 402.289,52.953 404.696,52.953 			"/>
			<polygon fill="#EDEDED" points="408.626,50.541 406.22,50.541 405.717,52.947 408.124,52.947 			"/>
			<polygon fill="#EDEDED" points="397.708,53.865 395.303,53.865 394.8,56.274 397.207,56.274 			"/>
			<polygon fill="#EDEDED" points="401.136,53.862 398.729,53.862 398.227,56.267 400.634,56.267 			"/>
			<polygon fill="#EDEDED" points="404.608,53.862 402.202,53.862 401.698,56.267 404.105,56.267 			"/>
			<polygon fill="#EDEDED" points="397.062,57.192 394.657,57.192 394.155,59.6 396.561,59.6 			"/>
			<polygon fill="#EDEDED" points="400.49,57.188 398.084,57.188 397.58,59.594 399.987,59.594 			"/>
			<polygon fill="#EDEDED" points="403.961,57.188 401.556,57.188 401.052,59.594 403.461,59.594 			"/>
			<polygon fill="#EDEDED" points="396.382,60.469 393.977,60.469 393.477,62.876 395.882,62.876 			"/>
			<polygon fill="#EDEDED" points="399.81,60.465 397.404,60.465 396.903,62.873 399.308,62.873 			"/>
			<polygon fill="#EDEDED" points="403.282,60.465 400.878,60.465 400.372,62.873 402.78,62.873 			"/>
			<polygon fill="#EDEDED" points="410.138,60.515 407.73,60.515 407.228,62.919 409.634,62.919 			"/>
			<polygon fill="#EDEDED" points="395.738,63.799 393.329,63.799 392.827,66.205 395.235,66.205 			"/>
			<polygon fill="#EDEDED" points="399.164,63.794 396.758,63.794 396.255,66.202 398.661,66.202 			"/>
			<polygon fill="#EDEDED" points="406.063,63.791 403.656,63.791 403.154,66.198 405.559,66.198 			"/>
			<polygon fill="#EDEDED" points="409.491,63.84 407.084,63.84 406.581,66.245 408.988,66.245 			"/>
			<polygon fill="#EDEDED" points="388.256,66.94 385.849,66.94 385.347,69.347 387.754,69.347 			"/>
			<polygon fill="#EDEDED" points="391.685,66.938 389.277,66.938 388.775,69.343 391.18,69.343 			"/>
			<polygon fill="#EDEDED" points="395.155,66.938 392.749,66.938 392.246,69.343 394.655,69.343 			"/>
			<polygon fill="#EDEDED" points="398.58,66.936 396.175,66.936 395.675,69.34 398.08,69.34 			"/>
			<polygon fill="#EDEDED" points="405.439,66.981 403.032,66.981 402.529,69.386 404.936,69.386 			"/>
			<polygon fill="#EDEDED" points="387.61,70.269 385.203,70.269 384.701,72.677 387.108,72.677 			"/>
			<polygon fill="#EDEDED" points="391.039,70.266 388.634,70.266 388.127,72.669 390.534,72.669 			"/>
			<polygon fill="#EDEDED" points="394.508,70.266 392.103,70.266 391.599,72.669 394.005,72.669 			"/>
			<polygon fill="#EDEDED" points="397.938,70.263 395.529,70.263 395.028,72.665 397.434,72.665 			"/>
			<polygon fill="#EDEDED" points="390.36,73.542 387.952,73.542 387.448,75.948 389.856,75.948 			"/>
			<polygon fill="#EDEDED" points="423.987,7.708 421.579,7.708 421.076,10.114 423.483,10.114 			"/>
			<polygon fill="#EDEDED" points="423.34,11.034 420.934,11.034 420.43,13.44 422.839,13.44 			"/>
			<polygon fill="#EDEDED" points="422.709,14.28 420.302,14.28 419.799,16.688 422.205,16.688 			"/>
			<polygon fill="#EDEDED" points="426.18,14.28 423.772,14.28 423.271,16.688 425.678,16.688 			"/>
			<polygon fill="#EDEDED" points="422.064,17.608 419.656,17.608 419.151,20.014 421.56,20.014 			"/>
			<polygon fill="#EDEDED" points="425.531,17.608 423.125,17.608 422.625,20.014 425.031,20.014 			"/>
			<polygon fill="#EDEDED" points="421.384,20.886 418.977,20.886 418.473,23.292 420.881,23.292 			"/>
			<polygon fill="#EDEDED" points="424.854,20.886 422.448,20.886 421.945,23.292 424.351,23.292 			"/>
			<polygon fill="#EDEDED" points="424.208,24.211 421.801,24.211 421.299,26.618 423.705,26.618 			"/>
			<polygon fill="#EDEDED" points="423.545,27.457 421.138,27.457 420.637,29.864 423.043,29.864 			"/>
			<polygon fill="#EDEDED" points="422.902,30.783 420.493,30.783 419.989,33.19 422.396,33.19 			"/>
			<polygon fill="#EDEDED" points="422.221,34.06 419.814,34.06 419.31,36.466 421.717,36.466 			"/>
			<polygon fill="#EDEDED" points="421.768,37.41 419.362,37.41 418.861,39.818 421.265,39.818 			"/>
			<polygon fill="#EDEDED" points="428.137,4.43 425.731,4.43 425.227,6.835 427.632,6.835 			"/>
			<polygon fill="#EDEDED" points="427.457,7.708 425.05,7.708 424.548,10.114 426.955,10.114 			"/>
			<polygon fill="#EDEDED" points="430.886,7.704 428.479,7.704 427.976,10.109 430.38,10.109 			"/>
			<polygon fill="#EDEDED" points="426.811,11.034 424.404,11.034 423.902,13.44 426.308,13.44 			"/>
			<polygon fill="#EDEDED" points="430.24,11.031 427.834,11.031 427.327,13.437 429.737,13.437 			"/>
			<polygon fill="#EDEDED" points="433.641,10.996 431.234,10.996 430.73,13.404 433.137,13.404 			"/>
			<polygon fill="#EDEDED" points="437.069,10.993 434.661,10.993 434.159,13.398 436.563,13.398 			"/>
			<polygon fill="#EDEDED" points="429.608,14.276 427.201,14.276 426.698,16.682 429.104,16.682 			"/>
			<polygon fill="#EDEDED" points="433.01,14.244 430.603,14.244 430.099,16.649 432.505,16.649 			"/>
			<polygon fill="#EDEDED" points="436.438,14.238 434.03,14.238 433.528,16.646 435.933,16.646 			"/>
			<polygon fill="#EDEDED" points="428.961,17.603 426.556,17.603 426.051,20.011 428.458,20.011 			"/>
			<polygon fill="#EDEDED" points="432.364,17.57 429.957,17.57 429.453,19.976 431.862,19.976 			"/>
			<polygon fill="#EDEDED" points="435.79,17.565 433.383,17.565 432.882,19.973 435.287,19.973 			"/>
			<polygon fill="#EDEDED" points="428.283,20.882 425.876,20.882 425.371,23.289 427.779,23.289 			"/>
			<polygon fill="#EDEDED" points="431.684,20.848 429.28,20.848 428.774,23.255 431.18,23.255 			"/>
			<polygon fill="#EDEDED" points="435.112,20.845 432.705,20.845 432.202,23.25 434.608,23.25 			"/>
			<polygon fill="#EDEDED" points="427.636,24.209 425.228,24.209 424.724,26.616 427.131,26.616 			"/>
			<polygon fill="#EDEDED" points="426.376,30.67 423.97,30.67 423.467,33.079 425.874,33.079 			"/>
			<polygon fill="#EDEDED" points="431.037,24.175 428.63,24.175 428.13,26.582 430.537,26.582 			"/>
			<polygon fill="#EDEDED" points="425.648,34.057 423.242,34.057 422.738,36.463 425.145,36.463 			"/>
			<polygon fill="#EDEDED" points="425.001,37.384 422.597,37.384 422.092,39.793 424.5,39.793 			"/>
			<polygon fill="#EDEDED" points="434.466,24.171 432.059,24.171 431.557,26.576 433.963,26.576 			"/>
			<polygon fill="#EDEDED" points="430.372,27.419 427.967,27.419 427.467,29.826 429.871,29.826 			"/>
			<polygon fill="#EDEDED" points="433.802,27.416 431.396,27.416 430.892,29.821 433.301,29.821 			"/>
			<polygon fill="#EDEDED" points="429.73,30.748 427.323,30.748 426.82,33.153 429.224,33.153 			"/>
			<polygon fill="#EDEDED" points="433.158,30.742 430.75,30.742 430.248,33.15 432.653,33.15 			"/>
			<polygon fill="#EDEDED" points="436.627,30.742 434.221,30.742 433.718,33.15 436.124,33.15 			"/>
			<polygon fill="#EDEDED" points="429.048,34.022 426.643,34.022 426.14,36.431 428.546,36.431 			"/>
			<polygon fill="#EDEDED" points="432.479,34.02 430.07,34.02 429.565,36.425 431.972,36.425 			"/>
			<polygon fill="#EDEDED" points="435.948,34.02 433.543,34.02 433.04,36.425 435.446,36.425 			"/>
			<polygon fill="#EDEDED" points="428.404,37.353 425.997,37.353 425.492,39.758 427.9,39.758 			"/>
			<polygon fill="#EDEDED" points="431.832,37.347 429.426,37.347 428.922,39.755 431.326,39.755 			"/>
			<polygon fill="#EDEDED" points="435.302,37.347 432.894,37.347 432.392,39.755 434.798,39.755 			"/>
			<polygon fill="#EDEDED" points="427.751,40.619 425.347,40.619 424.843,43.024 427.249,43.024 			"/>
			<polygon fill="#EDEDED" points="431.182,40.616 428.777,40.616 428.27,43.021 430.679,43.021 			"/>
			<polygon fill="#EDEDED" points="427.108,43.945 424.701,43.945 424.198,46.352 426.605,46.352 			"/>
			<polygon fill="#EDEDED" points="430.537,43.942 428.13,43.942 427.625,46.349 430.032,46.349 			"/>
			<polygon fill="#EDEDED" points="429.856,47.221 427.448,47.221 426.947,49.626 429.353,49.626 			"/>
			<polygon fill="#EDEDED" points="444.613,7.661 442.207,7.661 441.702,10.069 444.11,10.069 			"/>
			<polygon fill="#EDEDED" points="440.54,10.993 438.132,10.993 437.628,13.398 440.034,13.398 			"/>
			<polygon fill="#EDEDED" points="443.966,10.989 441.561,10.989 441.057,13.396 443.463,13.396 			"/>
			<polygon fill="#EDEDED" points="447.393,11.039 444.988,11.039 444.485,13.446 446.889,13.446 			"/>
			<polygon fill="#EDEDED" points="450.823,11.036 448.418,11.036 447.912,13.441 450.322,13.441 			"/>
			<polygon fill="#EDEDED" points="454.293,11.036 451.886,11.036 451.384,13.441 453.79,13.441 			"/>
			<polygon fill="#EDEDED" points="461.111,11 458.703,11 458.201,13.407 460.607,13.407 			"/>
			<polygon fill="#EDEDED" points="439.907,14.238 437.501,14.238 436.997,16.646 439.404,16.646 			"/>
			<polygon fill="#EDEDED" points="443.336,14.236 440.93,14.236 440.425,16.641 442.832,16.641 			"/>
			<polygon fill="#EDEDED" points="446.762,14.287 444.357,14.287 443.852,16.691 446.259,16.691 			"/>
			<polygon fill="#EDEDED" points="450.192,14.282 447.784,14.282 447.281,16.689 449.688,16.689 			"/>
			<polygon fill="#EDEDED" points="453.662,14.282 451.254,14.282 450.753,16.689 453.16,16.689 			"/>
			<polygon fill="#EDEDED" points="457.089,14.278 454.683,14.278 454.18,16.685 456.586,16.685 			"/>
			<polygon fill="#EDEDED" points="460.48,14.245 458.073,14.245 457.571,16.652 459.977,16.652 			"/>
			<polygon fill="#EDEDED" points="463.906,14.242 461.502,14.242 460.998,16.648 463.404,16.648 			"/>
			<polygon fill="#EDEDED" points="467.378,14.242 464.971,14.242 464.47,16.648 466.875,16.648 			"/>
			<polygon fill="#EDEDED" points="470.806,14.238 468.4,14.238 467.897,16.645 470.304,16.645 			"/>
			<polygon fill="#EDEDED" points="439.262,17.565 436.858,17.565 436.352,19.973 438.76,19.973 			"/>
			<polygon fill="#EDEDED" points="442.69,17.562 440.284,17.562 439.781,19.968 442.187,19.968 			"/>
			<polygon fill="#EDEDED" points="438.582,20.845 436.175,20.845 435.671,23.25 438.078,23.25 			"/>
			<polygon fill="#EDEDED" points="446.119,17.612 443.712,17.612 443.207,20.019 445.613,20.019 			"/>
			<polygon fill="#EDEDED" points="449.546,17.608 447.14,17.608 446.637,20.016 449.045,20.016 			"/>
			<polygon fill="#EDEDED" points="437.938,24.171 435.531,24.171 435.026,26.576 437.434,26.576 			"/>
			<polygon fill="#EDEDED" points="453.018,17.608 450.61,17.608 450.107,20.016 452.512,20.016 			"/>
			<polygon fill="#EDEDED" points="456.445,17.605 454.037,17.605 453.532,20.011 455.941,20.011 			"/>
			<polygon fill="#EDEDED" points="463.263,17.568 460.856,17.568 460.353,19.976 462.76,19.976 			"/>
			<polygon fill="#EDEDED" points="442.009,20.84 439.603,20.84 439.101,23.248 441.507,23.248 			"/>
			<polygon fill="#EDEDED" points="445.439,20.89 443.03,20.89 442.528,23.296 444.933,23.296 			"/>
			<polygon fill="#EDEDED" points="448.866,20.887 446.461,20.887 445.953,23.292 448.362,23.292 			"/>
			<polygon fill="#EDEDED" points="452.334,20.887 449.93,20.887 449.428,23.292 451.834,23.292 			"/>
			<polygon fill="#EDEDED" points="455.766,20.882 453.359,20.882 452.854,23.29 455.263,23.29 			"/>
			<polygon fill="#EDEDED" points="466.052,20.848 463.646,20.848 463.145,23.254 465.551,23.254 			"/>
			<polygon fill="#EDEDED" points="441.365,24.168 438.957,24.168 438.454,26.573 440.862,26.573 			"/>
			<polygon fill="#EDEDED" points="444.793,24.217 442.387,24.217 441.882,26.625 444.287,26.625 			"/>
			<polygon fill="#EDEDED" points="448.221,24.214 445.813,24.214 445.31,26.62 447.719,26.62 			"/>
			<polygon fill="#EDEDED" points="451.691,24.214 449.284,24.214 448.781,26.62 451.188,26.62 			"/>
			<polygon fill="#EDEDED" points="455.12,24.209 452.713,24.209 452.209,26.617 454.615,26.617 			"/>
			<polygon fill="#EDEDED" points="458.508,24.178 456.102,24.178 455.599,26.583 458.004,26.583 			"/>
			<polygon fill="#EDEDED" points="440.702,27.412 438.293,27.412 437.792,29.818 440.198,29.818 			"/>
			<polygon fill="#EDEDED" points="444.129,27.461 441.723,27.461 441.219,29.869 443.626,29.869 			"/>
			<polygon fill="#EDEDED" points="447.557,27.458 445.151,27.458 444.649,29.864 447.054,29.864 			"/>
			<polygon fill="#EDEDED" points="451.03,27.458 448.622,27.458 448.119,29.864 450.523,29.864 			"/>
			<polygon fill="#EDEDED" points="454.455,27.456 452.049,27.456 451.546,29.861 453.953,29.861 			"/>
			<polygon fill="#EDEDED" points="457.846,27.421 455.441,27.421 454.936,29.83 457.342,29.83 			"/>
			<polygon fill="#EDEDED" points="461.273,27.419 458.866,27.419 458.364,29.825 460.772,29.825 			"/>
			<polygon fill="#EDEDED" points="440.057,30.739 437.649,30.739 437.144,33.146 439.551,33.146 			"/>
			<polygon fill="#EDEDED" points="443.483,30.79 441.077,30.79 440.573,33.196 442.982,33.196 			"/>
			<polygon fill="#EDEDED" points="446.911,30.785 444.505,30.785 444.002,33.192 446.407,33.192 			"/>
			<polygon fill="#EDEDED" points="450.383,30.785 447.977,30.785 447.471,33.192 449.879,33.192 			"/>
			<polygon fill="#EDEDED" points="453.809,30.781 451.403,30.781 450.903,33.188 453.309,33.188 			"/>
			<polygon fill="#EDEDED" points="457.2,30.75 454.793,30.75 454.29,33.158 456.697,33.158 			"/>
			<polygon fill="#EDEDED" points="460.627,30.746 458.221,30.746 457.719,33.153 460.123,33.153 			"/>
			<polygon fill="#EDEDED" points="464.099,30.746 461.691,30.746 461.189,33.153 463.595,33.153 			"/>
			<polygon fill="#EDEDED" points="439.377,34.017 436.97,34.017 436.466,36.422 438.872,36.422 			"/>
			<polygon fill="#EDEDED" points="442.803,34.065 440.398,34.065 439.893,36.474 442.3,36.474 			"/>
			<polygon fill="#EDEDED" points="446.229,34.063 443.824,34.063 443.324,36.468 445.729,36.468 			"/>
			<polygon fill="#EDEDED" points="449.704,34.063 447.297,34.063 446.791,36.468 449.199,36.468 			"/>
			<polygon fill="#EDEDED" points="453.13,34.057 450.725,34.057 450.222,36.466 452.626,36.466 			"/>
			<polygon fill="#EDEDED" points="459.946,34.022 457.542,34.022 457.04,36.431 459.446,36.431 			"/>
			<polygon fill="#EDEDED" points="442.157,37.393 439.75,37.393 439.248,39.798 441.654,39.798 			"/>
			<polygon fill="#EDEDED" points="445.585,37.39 443.179,37.39 442.676,39.795 445.082,39.795 			"/>
			<polygon fill="#EDEDED" points="449.058,37.39 446.651,37.39 446.148,39.795 448.554,39.795 			"/>
			<polygon fill="#EDEDED" points="452.484,37.384 450.077,37.384 449.574,39.793 451.983,39.793 			"/>
			<polygon fill="#EDEDED" points="455.873,37.355 453.468,37.355 452.963,39.76 455.37,39.76 			"/>
			<polygon fill="#EDEDED" points="441.507,40.662 439.101,40.662 438.599,43.067 441.006,43.067 			"/>
			<polygon fill="#EDEDED" points="444.936,40.659 442.528,40.659 442.026,43.064 444.432,43.064 			"/>
			<polygon fill="#EDEDED" points="448.406,40.659 446.002,40.659 445.494,43.064 447.904,43.064 			"/>
			<polygon fill="#EDEDED" points="458.651,40.619 456.244,40.619 455.744,43.024 458.15,43.024 			"/>
			<polygon fill="#EDEDED" points="444.289,43.983 441.883,43.983 441.379,46.392 443.785,46.392 			"/>
			<polygon fill="#EDEDED" points="447.759,43.983 445.352,43.983 444.851,46.392 447.259,46.392 			"/>
			<polygon fill="#EDEDED" points="451.189,43.98 448.781,43.98 448.279,46.385 450.684,46.385 			"/>
			<polygon fill="#EDEDED" points="461.478,43.945 459.071,43.945 458.567,46.352 460.973,46.352 			"/>
			<polygon fill="#EDEDED" points="443.61,47.261 441.202,47.261 440.7,49.667 443.107,49.667 			"/>
			<polygon fill="#EDEDED" points="447.081,47.261 444.674,47.261 444.171,49.667 446.578,49.667 			"/>
			<polygon fill="#EDEDED" points="450.507,47.258 448.102,47.258 447.6,49.663 450.006,49.663 			"/>
			<polygon fill="#EDEDED" points="457.326,47.223 454.919,47.223 454.417,49.629 456.823,49.629 			"/>
			<polygon fill="#EDEDED" points="442.965,50.587 440.558,50.587 440.053,52.996 442.46,52.996 			"/>
			<polygon fill="#EDEDED" points="446.433,50.587 444.028,50.587 443.525,52.996 445.931,52.996 			"/>
			<polygon fill="#EDEDED" points="449.862,50.585 447.453,50.585 446.951,52.993 449.359,52.993 			"/>
			<polygon fill="#EDEDED" points="453.251,50.556 450.846,50.556 450.343,52.962 452.749,52.962 			"/>
			<polygon fill="#EDEDED" points="456.682,50.551 454.274,50.551 453.77,52.955 456.175,52.955 			"/>
			<polygon fill="#EDEDED" points="445.846,53.905 443.438,53.905 442.934,56.315 445.341,56.315 			"/>
			<polygon fill="#EDEDED" points="449.272,53.903 446.865,53.903 446.363,56.31 448.77,56.31 			"/>
			<polygon fill="#EDEDED" points="452.663,53.871 450.254,53.871 449.752,56.277 452.159,56.277 			"/>
			<polygon fill="#EDEDED" points="456.09,53.869 453.685,53.869 453.179,56.274 455.586,56.274 			"/>
			<polygon fill="#EDEDED" points="459.561,53.869 457.152,53.869 456.652,56.274 459.059,56.274 			"/>
			<polygon fill="#EDEDED" points="466.416,53.915 464.01,53.915 463.507,56.32 465.913,56.32 			"/>
			<polygon fill="#EDEDED" points="469.843,53.908 467.437,53.908 466.935,56.317 469.342,56.317 			"/>
			<polygon fill="#EDEDED" points="473.315,53.908 470.909,53.908 470.405,56.317 472.812,56.317 			"/>
			<polygon fill="#EDEDED" points="452.018,57.197 449.609,57.197 449.107,59.604 451.514,59.604 			"/>
			<polygon fill="#EDEDED" points="472.668,57.238 470.262,57.238 469.761,59.643 472.168,59.643 			"/>
			<polygon fill="#EDEDED" points="476.095,57.231 473.69,57.231 473.188,59.64 475.593,59.64 			"/>
			<polygon fill="#EDEDED" points="461.663,60.465 459.258,60.465 458.753,62.873 461.16,62.873 			"/>
			<polygon fill="#EDEDED" points="465.089,60.517 462.684,60.517 462.183,62.922 464.589,62.922 			"/>
			<polygon fill="#EDEDED" points="468.52,60.515 466.111,60.515 465.61,62.919 468.015,62.919 			"/>
			<polygon fill="#EDEDED" points="471.99,60.515 469.584,60.515 469.081,62.919 471.488,62.919 			"/>
			<polygon fill="#EDEDED" points="475.416,60.508 473.01,60.508 472.508,62.917 474.914,62.917 			"/>
			<polygon fill="#EDEDED" points="478.821,60.477 476.412,60.477 475.908,62.883 478.315,62.883 			"/>
			<polygon fill="#EDEDED" points="454.118,63.799 451.711,63.799 451.21,66.205 453.616,66.205 			"/>
			<polygon fill="#EDEDED" points="457.59,63.799 455.183,63.799 454.679,66.205 457.086,66.205 			"/>
			<polygon fill="#EDEDED" points="461.018,63.796 458.612,63.796 458.107,66.202 460.514,66.202 			"/>
			<polygon fill="#EDEDED" points="464.444,63.845 462.038,63.845 461.535,66.251 463.942,66.251 			"/>
			<polygon fill="#EDEDED" points="467.873,63.84 465.467,63.84 464.963,66.248 467.368,66.248 			"/>
			<polygon fill="#EDEDED" points="471.343,63.84 468.936,63.84 468.432,66.248 470.842,66.248 			"/>
			<polygon fill="#EDEDED" points="474.771,63.837 472.364,63.837 471.862,66.242 474.268,66.242 			"/>
			<polygon fill="#EDEDED" points="450.088,67.041 447.682,67.041 447.179,69.45 449.584,69.45 			"/>
			<polygon fill="#EDEDED" points="449.551,70.364 447.144,70.364 446.642,72.769 449.047,72.769 			"/>
			<polygon fill="#EDEDED" points="453.515,67.039 451.11,67.039 450.607,69.443 453.013,69.443 			"/>
			<polygon fill="#EDEDED" points="456.946,67.087 454.54,67.087 454.033,69.496 456.441,69.496 			"/>
			<polygon fill="#EDEDED" points="460.369,67.085 457.965,67.085 457.462,69.489 459.868,69.489 			"/>
			<polygon fill="#EDEDED" points="463.844,67.085 461.435,67.085 460.931,69.489 463.34,69.489 			"/>
			<polygon fill="#EDEDED" points="467.271,67.081 464.865,67.081 464.363,69.487 466.768,69.487 			"/>
			<polygon fill="#EDEDED" points="470.672,67.047 468.265,67.047 467.762,69.455 470.168,69.455 			"/>
			<polygon fill="#EDEDED" points="474.102,67.044 471.695,67.044 471.189,69.45 473.595,69.45 			"/>
			<polygon fill="#EDEDED" points="477.571,67.044 475.164,67.044 474.663,69.45 477.067,69.45 			"/>
			<polygon fill="#EDEDED" points="452.87,70.366 450.464,70.366 449.961,72.772 452.367,72.772 			"/>
			<polygon fill="#EDEDED" points="456.297,70.419 453.891,70.419 453.388,72.823 455.794,72.823 			"/>
			<polygon fill="#EDEDED" points="459.726,70.412 457.321,70.412 456.815,72.821 459.222,72.821 			"/>
			<polygon fill="#EDEDED" points="463.197,70.412 460.789,70.412 460.288,72.821 462.694,72.821 			"/>
			<polygon fill="#EDEDED" points="466.624,70.41 464.218,70.41 463.715,72.818 466.123,72.818 			"/>
			<polygon fill="#EDEDED" points="470.027,70.378 467.619,70.378 467.115,72.783 469.524,72.783 			"/>
			<polygon fill="#EDEDED" points="473.452,70.369 471.047,70.369 470.545,72.78 472.951,72.78 			"/>
			<polygon fill="#EDEDED" points="452.192,73.643 449.783,73.643 449.281,76.049 451.688,76.049 			"/>
			<polygon fill="#EDEDED" points="455.617,73.694 453.21,73.694 452.709,76.101 455.116,76.101 			"/>
			<polygon fill="#EDEDED" points="462.518,73.688 460.112,73.688 459.607,76.098 462.012,76.098 			"/>
			<polygon fill="#EDEDED" points="465.944,73.687 463.538,73.687 463.036,76.095 465.443,76.095 			"/>
			<polygon fill="#EDEDED" points="469.346,73.654 466.941,73.654 466.436,76.06 468.843,76.06 			"/>
			<polygon fill="#EDEDED" points="486.529,73.688 484.121,73.688 483.618,76.098 486.025,76.098 			"/>
			<polygon fill="#EDEDED" points="475.367,79.288 472.961,79.288 472.458,81.696 474.865,81.696 			"/>
			<polygon fill="#EDEDED" points="426.973,27.453 424.567,27.453 424.064,29.859 426.469,29.859 			"/>
			<polygon fill="#EDEDED" points="461.904,76.833 459.497,76.833 458.995,79.239 461.403,79.239 			"/>
			<polygon fill="#EDEDED" points="479.028,76.971 476.621,76.971 476.117,79.38 478.526,79.38 			"/>
			<polygon fill="#EDEDED" points="482.454,77.023 480.049,77.023 479.546,79.429 481.952,79.429 			"/>
			<polygon fill="#EDEDED" points="438.731,37.343 436.324,37.343 435.823,39.752 438.228,39.752 			"/>
			<polygon fill="#EDEDED" points="437.274,27.416 434.867,27.416 434.365,29.821 436.771,29.821 			"/>
		</g>
	</g>
</g>
</svg>
