<?xml version="1.0" encoding="utf-8"?>
<!-- Generator: Adobe Illustrator 16.0.0, SVG Export Plug-In . SVG Version: 6.00 Build 0)  -->
<!DOCTYPE svg PUBLIC "-//W3C//DTD SVG 1.1//EN" "http://www.w3.org/Graphics/SVG/1.1/DTD/svg11.dtd">
<svg version="1.1" id="Capa_1" xmlns="http://www.w3.org/2000/svg" xmlns:xlink="http://www.w3.org/1999/xlink" x="0px" y="0px"
	 width="1027.669px" height="322.62px" viewBox="-264.032 88.906 1027.669 322.62"
	 enable-background="new -264.032 88.906 1027.669 322.62" xml:space="preserve">
<path fill="#FFFFFF" d="M128.914,411.41l0.098-151.922c0-19.46,9.505-33.465,29.024-33.465c15.937,0,28.253,11.672,28.253,28.271
	c0,16.602-12.316,28.272-28.253,28.272c-8.988,0-14.132-1.824-17.206-3.635v38.388c3.845,1.563,10.275,3.113,20.036,3.113
	c32.615,0,66.528-22.568,66.528-65.88c0-37.871-28.771-66.397-68.588-66.397c-36.47,0-66.909,20.746-66.909,61.21v162.16
	L128.914,411.41z"/>
<polygon fill="#FFFFFF" points="76.741,188.158 23.563,188.158 5.137,259.518 4.747,259.518 -14.459,188.158 -73.542,188.158 
	-73.542,322.641 -37.403,322.641 -37.403,226.578 -37.003,226.578 -11.727,322.641 14.545,322.641 39.051,226.578 39.451,226.578 
	39.451,322.641 76.741,322.641 "/>
<polygon fill="#FFFFFF" points="-264.032,139.44 -175.496,88.906 -87.634,140.109 -176.16,190.075 "/>
<polygon fill="#FFFFFF" points="-224.117,172.085 -176.16,200.03 -128.877,173.429 -103.62,188.073 -177.507,230.659 
	-250.721,188.073 "/>
<polygon fill="#FFFFFF" points="-212.162,218.697 -176.834,240.048 -140.842,219.368 -116.248,234.012 -176.834,269.335 
	-238.094,234.012 "/>
<polygon fill="#FFFFFF" points="-200.09,263.973 -177.507,278.616 -152.133,263.973 -126.193,279.29 -176.834,309.25 
	-226.802,278.616 "/>
<polygon fill="#FFFFFF" points="-193.492,307.904 -177.507,317.293 -159.511,307.904 -133.571,322.553 -176.17,347.927 
	-217.412,323.226 "/>
<path fill="#FFFFFF" d="M700.172,203.756h15.771c14.404,0,23.56,5.646,23.56,22c0,17.908-14.404,23.359-28.038,23.359h-11.291
	L700.172,203.756L700.172,203.756z M680.711,322.51h19.461V264.69h11.096c18.689,0,21.031,8.76,26.477,28.029l8.18,29.79h17.713
	l-7.983-37.379c-2.918-14.015-4.858-25.695-23.158-29.59v-0.391c13.624-3.304,26.468-10.706,26.468-31.732
	c0-26.278-18.289-35.232-39.32-35.232h-38.93V322.51H680.711z M580.844,255.361c0-21.334,4.09-52.115,30.957-52.115
	c26.856,0,31.142,30.781,31.142,52.115c0,21.338-4.284,52.114-31.142,52.114C584.934,307.475,580.844,276.698,580.844,255.361
	 M611.802,322.588c41.262,0,52.554-32.104,52.554-67.228c0-35.313-11.292-67.225-52.554-67.225
	c-41.282,0-52.368,31.912-52.368,67.225C559.433,290.484,570.519,322.588,611.802,322.588 M505.308,322.51h19.47V203.756h33.483
	v-15.57h-86.438v15.57h33.484L505.308,322.51L505.308,322.51z M412.41,322.51h71.058v-15.576H431.88V188.185h-19.47V322.51z
	 M345.061,206.093h0.392l18.493,62.491h-38.354L345.061,206.093z M287.433,322.51h20.642l13.037-38.351h48.084l13.233,38.351h20.641
	l-45.937-134.324h-23.949L287.433,322.51z"/>
</svg>
