<?xml version="1.0" encoding="utf-8"?>
<!-- Generator: Adobe Illustrator 16.0.0, SVG Export Plug-In . SVG Version: 6.00 Build 0)  -->
<!DOCTYPE svg PUBLIC "-//W3C//DTD SVG 1.1//EN" "http://www.w3.org/Graphics/SVG/1.1/DTD/svg11.dtd">
<svg version="1.1" id="Capa_1" xmlns="http://www.w3.org/2000/svg" xmlns:xlink="http://www.w3.org/1999/xlink" x="0px" y="0px"
	 width="1035.775px" height="311.942px" viewBox="127.446 19.532 1035.775 311.942"
	 enable-background="new 127.446 19.532 1035.775 311.942" xml:space="preserve">
<path fill="#FFFFFF" d="M507.384,331.361l0.095-146.897c0-18.81,9.188-32.354,28.063-32.354c15.408,0,27.316,11.285,27.316,27.341
	c0,16.051-11.908,27.332-27.316,27.332c-8.689,0-13.664-1.76-16.637-3.515v37.112c3.719,1.515,9.938,3.015,19.372,3.015
	c31.536,0,64.326-21.821,64.326-63.699c0-36.617-27.817-64.199-66.317-64.199c-35.263,0-64.691,20.063-64.691,59.187v156.791
	L507.384,331.361z"/>
<polygon fill="#FFFFFF" points="456.936,115.5 405.519,115.5 387.704,184.491 387.326,184.491 368.756,115.5 311.629,115.5 
	311.629,245.526 346.572,245.526 346.572,152.645 346.958,152.645 371.398,245.526 396.8,245.526 420.494,152.645 420.881,152.645 
	420.881,245.526 456.936,245.526 "/>
<polygon fill="#FFFFFF" points="127.446,68.39 213.05,19.532 298.003,69.041 212.409,117.349 "/>
<polygon fill="#FFFFFF" points="166.04,99.954 212.409,126.974 258.126,101.251 282.547,115.415 211.106,156.594 140.316,115.415 
	"/>
<polygon fill="#FFFFFF" points="177.599,145.025 211.757,165.672 246.558,145.672 270.337,159.83 211.757,193.985 152.527,159.83 
	"/>
<polygon fill="#FFFFFF" points="189.271,188.799 211.106,202.958 235.64,188.799 260.722,203.61 211.757,232.579 163.444,202.958 
	"/>
<polygon fill="#FFFFFF" points="195.65,231.277 211.106,240.354 228.506,231.277 253.588,245.446 212.399,269.973 172.521,246.09 
	"/>
<path fill="#FFFFFF" d="M1101.857,130.579h15.249c13.927,0,22.771,5.459,22.771,21.271c0,17.313-13.932,22.589-27.104,22.589
	h-10.917L1101.857,130.579L1101.857,130.579z M1083.031,245.397h18.825v-55.899h10.729c18.07,0,20.324,8.465,25.594,27.104
	l7.916,28.798h17.127l-7.721-36.136c-2.832-13.557-4.709-24.854-22.399-28.615v-0.377c13.183-3.199,25.601-10.354,25.601-30.684
	c0-25.404-17.69-34.063-38.024-34.063h-37.645L1083.031,245.397L1083.031,245.397z M986.472,180.477
	c0-20.632,3.955-50.396,29.932-50.396c25.979,0,30.11,29.765,30.11,50.396c0,20.627-4.132,50.389-30.11,50.389
	C990.427,230.865,986.472,201.104,986.472,180.477 M1016.403,245.478c39.905,0,50.823-31.046,50.823-65.001
	c0-34.146-10.918-65.005-50.823-65.005c-39.902,0-50.634,30.857-50.634,65.005C965.77,214.432,976.497,245.478,1016.403,245.478
	 M900.265,245.397h23.345l44.235-129.874h-19.771l-35.763,108.421h-0.377L876.55,115.523h-19.763L900.265,245.397z M800.13,130.579
	h15.249c13.927,0,22.775,5.459,22.775,21.271c0,17.313-13.928,22.589-27.101,22.589h-10.928L800.13,130.579L800.13,130.579z
	 M781.313,245.397h18.815v-55.899h10.735c18.07,0,20.325,8.465,25.591,27.104l7.907,28.798h17.127l-7.709-36.136
	c-2.832-13.557-4.71-24.854-22.398-28.615v-0.377c13.172-3.199,25.601-10.354,25.601-30.684c0-25.404-17.692-34.063-38.026-34.063
	h-37.643V245.397L781.313,245.397z M716.372,132.839h0.38l17.882,60.418h-37.083L716.372,132.839z M660.652,245.397h19.958
	l12.605-37.078h46.49l12.797,37.078h19.957l-44.416-129.874H704.89L660.652,245.397z"/>
</svg>
