<?xml version="1.0" encoding="utf-8"?>
<!-- Generator: Adobe Illustrator 16.0.0, SVG Export Plug-In . SVG Version: 6.00 Build 0)  -->
<!DOCTYPE svg PUBLIC "-//W3C//DTD SVG 1.1//EN" "http://www.w3.org/Graphics/SVG/1.1/DTD/svg11.dtd">
<svg version="1.1" id="Capa_1" xmlns="http://www.w3.org/2000/svg" xmlns:xlink="http://www.w3.org/1999/xlink" x="0px" y="0px"
	 width="1307px" height="351px" viewBox="0 0 1307 351" enable-background="new 0 0 1307 351" xml:space="preserve">
<path fill="#66747B" d="M507.382,331.361l0.095-146.897c0-18.81,9.19-32.355,28.063-32.355c15.409,0,27.317,11.285,27.317,27.341
	c0,16.051-11.908,27.332-27.317,27.332c-8.691,0-13.664-1.76-16.636-3.515v37.115c3.718,1.512,9.936,3.012,19.372,3.012
	c31.536,0,64.326-21.821,64.326-63.699c0-36.617-27.817-64.199-66.317-64.199c-35.263,0-64.694,20.062-64.694,59.184v156.791
	L507.382,331.361z"/>
<polygon fill="#66747B" points="456.936,115.5 405.519,115.5 387.704,184.491 387.326,184.491 368.756,115.5 311.629,115.5 
	311.629,245.526 346.572,245.526 346.572,152.645 346.958,152.645 371.398,245.526 396.8,245.526 420.494,152.645 420.881,152.645 
	420.881,245.526 456.936,245.526 "/>
<polygon fill="#66747B" points="127.446,68.39 213.05,19.532 298.003,69.041 212.409,117.349 "/>
<polygon fill="#66747B" points="166.04,99.954 212.409,126.974 258.126,101.251 282.547,115.415 211.106,156.594 140.316,115.415 
	"/>
<polygon fill="#66747B" points="177.599,145.025 211.757,165.672 246.558,145.672 270.337,159.83 211.757,193.985 152.527,159.83 
	"/>
<polygon fill="#66747B" points="189.271,188.799 211.106,202.958 235.64,188.799 260.722,203.61 211.757,232.579 163.444,202.958 
	"/>
<polygon fill="#66747B" points="195.65,231.277 211.106,240.354 228.506,231.277 253.588,245.446 212.399,269.973 172.521,246.09 
	"/>
<path fill="#CE003D" d="M1101.857,130.579h15.249c13.927,0,22.77,5.459,22.77,21.269c0,17.314-13.929,22.589-27.102,22.589h-10.917
	V130.579z M1083.032,245.397h18.825v-55.899h10.729c18.071,0,20.325,8.465,25.592,27.102l7.916,28.798h17.127l-7.719-36.136
	c-2.831-13.554-4.708-24.851-22.401-28.615v-0.377c13.183-3.199,25.601-10.351,25.601-30.681c0-25.407-17.693-34.064-38.027-34.064
	h-37.642V245.397z M986.472,180.477c0-20.632,3.955-50.394,29.932-50.394c25.979,0,30.11,29.762,30.11,50.394
	c0,20.627-4.132,50.389-30.11,50.389C990.427,230.865,986.472,201.104,986.472,180.477 M1016.403,245.478
	c39.905,0,50.823-31.046,50.823-65.001c0-34.145-10.918-65.005-50.823-65.005s-50.634,30.86-50.634,65.005
	C965.77,214.432,976.498,245.478,1016.403,245.478 M900.265,245.397h23.345l44.235-129.874h-19.769l-35.763,108.421h-0.377
	l-35.386-108.421h-19.76L900.265,245.397z M800.128,130.579h15.249c13.927,0,22.778,5.459,22.778,21.269
	c0,17.314-13.928,22.589-27.101,22.589h-10.927V130.579z M781.313,245.397h18.815v-55.899h10.738
	c18.07,0,20.325,8.465,25.591,27.102l7.907,28.798h17.127l-7.709-36.136c-2.832-13.554-4.71-24.851-22.401-28.615v-0.377
	c13.172-3.199,25.601-10.351,25.601-30.681c0-25.407-17.693-34.064-38.027-34.064h-37.642V245.397z M716.373,132.839h0.378
	l17.881,60.418h-37.083L716.373,132.839z M660.652,245.397h19.958l12.605-37.078h46.493l12.795,37.078h19.957l-44.416-129.874
	H704.89L660.652,245.397z"/>
</svg>
