<?xml version="1.0" encoding="utf-8"?>
<!-- Generator: Adobe Illustrator 16.0.0, SVG Export Plug-In . SVG Version: 6.00 Build 0)  -->
<!DOCTYPE svg PUBLIC "-//W3C//DTD SVG 1.1//EN" "http://www.w3.org/Graphics/SVG/1.1/DTD/svg11.dtd">
<svg version="1.1" id="Capa_1" xmlns="http://www.w3.org/2000/svg" xmlns:xlink="http://www.w3.org/1999/xlink" x="0px" y="0px"
	 width="111.415px" height="43px" viewBox="0 0 111.415 43" enable-background="new 0 0 111.415 43" xml:space="preserve">
<path fill="#66747B" d="M52.305,42.928l0.012-20.223c0-2.589,1.268-4.454,3.865-4.454c2.119,0,3.762,1.554,3.762,3.765
	c0,2.209-1.643,3.764-3.762,3.764c-1.197,0-1.883-0.242-2.291-0.482v5.107c0.514,0.207,1.367,0.416,2.666,0.416
	c4.344,0,8.857-3.006,8.857-8.771c0-5.04-3.83-8.837-9.131-8.837c-4.855,0-8.908,2.762-8.908,8.148v21.584L52.305,42.928z"/>
<polygon fill="#66747B" points="45.36,13.211 38.282,13.211 35.829,22.709 35.778,22.709 33.221,13.211 25.356,13.211 
	25.356,31.111 30.167,31.111 30.167,18.325 30.217,18.325 33.584,31.111 37.083,31.111 40.344,18.325 40.395,18.325 40.395,31.111 
	45.36,31.111 "/>
<polygon fill="#66747B" points="0,6.727 11.786,0 23.481,6.816 11.696,13.466 "/>
<polygon fill="#66747B" points="5.313,11.072 11.696,14.792 17.991,11.25 21.354,13.2 11.516,18.869 1.772,13.2 "/>
<polygon fill="#66747B" points="6.905,17.277 11.608,20.118 16.399,17.366 19.67,19.314 11.608,24.018 3.452,19.314 "/>
<polygon fill="#66747B" points="8.512,23.305 11.516,25.253 14.895,23.305 18.348,25.343 11.608,29.33 4.956,25.253 "/>
<polygon fill="#66747B" points="9.389,29.15 11.516,30.4 13.913,29.15 17.366,31.102 11.696,34.479 6.206,31.191 "/>
<g enable-background="new    ">
	<path fill="#CE003D" d="M73.417,30.938l5.64-17.665h2.437l5.701,17.665h-1.987l-1.775-5.451H77.13l-1.714,5.451H73.417z
		 M80.256,15.086l-2.589,8.739h5.226l-2.587-8.739H80.256z"/>
	<path fill="#CE003D" d="M91.658,30.938V14.936h-4.226v-1.663H97.87v1.663h-4.226v16.002H91.658z"/>
	<path fill="#CE003D" d="M100.034,30.938V13.273h1.987v16.002h6.325v1.662H100.034z"/>
</g>
</svg>
