<?xml version="1.0" encoding="utf-8"?>
<!-- Generator: Adobe Illustrator 16.0.0, SVG Export Plug-In . SVG Version: 6.00 Build 0)  -->
<!DOCTYPE svg PUBLIC "-//W3C//DTD SVG 1.1//EN" "http://www.w3.org/Graphics/SVG/1.1/DTD/svg11.dtd">
<svg version="1.1" id="Capa_1" xmlns="http://www.w3.org/2000/svg" xmlns:xlink="http://www.w3.org/1999/xlink" x="0px" y="0px"
	 width="1307px" height="351px" viewBox="0 0 1307 351" enable-background="new 0 0 1307 351" xml:space="preserve">
<path fill="#66747B" d="M411.221,343.629l0.09-157.472c0-20.167,9.861-34.684,30.093-34.684c16.509,0,29.284,12.098,29.284,29.307
	c0,17.207-12.775,29.3-29.284,29.3c-9.316,0-14.648-1.885-17.833-3.766v39.791c3.985,1.614,10.651,3.227,20.756,3.227
	c33.817,0,68.967-23.394,68.967-68.286c0-39.252-29.821-68.819-71.091-68.819c-37.812,0-69.353,21.503-69.353,63.444v168.077
	L411.221,343.629z"/>
<polygon fill="#66747B" points="357.143,112.226 302.024,112.226 282.926,186.191 282.522,186.191 262.615,112.226 201.376,112.226 
	201.376,251.617 238.834,251.617 238.834,152.048 239.238,152.048 265.447,251.617 292.677,251.617 318.078,152.048 
	318.492,152.048 318.492,251.617 357.143,251.617 "/>
<polygon fill="#66747B" points="3.931,61.73 95.699,9.351 186.77,62.424 95.012,114.214 "/>
<polygon fill="#66747B" points="45.294,95.566 95.012,124.531 144.021,96.96 170.2,112.137 93.616,156.278 17.729,112.137 "/>
<polygon fill="#66747B" points="57.696,143.88 94.314,166.01 131.619,144.575 157.11,159.754 94.314,196.367 30.81,159.754 "/>
<polygon fill="#66747B" points="70.208,190.809 93.616,205.99 119.915,190.809 146.792,206.681 94.314,237.735 42.523,205.99 "/>
<polygon fill="#66747B" points="77.046,236.343 93.616,246.075 112.269,236.343 139.146,251.53 95.001,277.824 52.254,252.226 "/>
<path fill="#CE003D" d="M1215.25,181.881c0-22.112,4.229-54.016,32.076-54.016c27.849,0,32.289,31.904,32.289,54.016
	c0,22.119-4.44,54.021-32.289,54.021C1219.479,235.901,1215.25,204,1215.25,181.881 M1247.326,251.561
	c42.777,0,54.481-33.275,54.481-69.681c0-36.6-11.704-69.678-54.481-69.678c-42.779,0-54.278,33.079-54.278,69.678
	C1193.048,218.286,1204.547,251.561,1247.326,251.561 M1184.781,225.334c-3.63,2.151-15.332,10.567-32.49,10.567
	c-28.849,0-37.325-24.855-37.325-58.716c0-18.397,3.632-49.321,29.86-49.321c19.574,0,21.991,15.262,21.991,23.488h23.408
	c0-23.099-16.335-39.15-44.791-39.15c-40.564,0-52.662,32.296-52.662,68.116c0,52.841,24.813,71.242,55.484,71.242
	c16.347,0,30.68-5.479,36.524-8.026V225.334z M976.948,251.481h18.158V139.895h0.404l56.293,111.586h23.812V112.254h-18.158v108.959
	h-0.404l-54.886-108.959h-25.219V251.481L976.948,251.481z M884.129,251.481h78.698v-16.143H904.31v-48.225h53.875v-16.145H904.31
	v-42.576h56.696v-16.139h-76.877V251.481L884.129,251.481z M807.05,251.481h25.025l47.411-139.227h-21.182l-38.338,116.224h-0.404
	L781.63,112.254h-21.192L807.05,251.481z M687.191,251.481h78.699v-16.143h-58.519v-48.225h53.875v-16.145h-53.875v-42.576h56.698
	v-16.139h-76.879V251.481z M595.788,128.393h11.704c25.431,0,40.362,9.083,40.362,53.474c0,43.783-14.932,53.268-40.159,53.472
	h-11.906L595.788,128.393L595.788,128.393z M575.618,251.481h35.708c32.29,0,58.72-12.31,58.72-70.017
	c0-45.805-16.336-69.21-58.72-69.21h-35.708V251.481z"/>
</svg>
