<?xml version="1.0" encoding="utf-8"?>
<!-- Generator: Adobe Illustrator 16.0.0, SVG Export Plug-In . SVG Version: 6.00 Build 0)  -->
<!DOCTYPE svg PUBLIC "-//W3C//DTD SVG 1.1//EN" "http://www.w3.org/Graphics/SVG/1.1/DTD/svg11.dtd">
<svg version="1.1" id="Capa_1" xmlns="http://www.w3.org/2000/svg" xmlns:xlink="http://www.w3.org/1999/xlink" x="0px" y="0px"
	 width="1297.876px" height="334.396px" viewBox="3.931 9.351 1297.876 334.396"
	 enable-background="new 3.931 9.351 1297.876 334.396" xml:space="preserve">
<path fill="#FFFFFF" d="M411.221,343.63l0.09-157.473c0-20.167,9.861-34.684,30.093-34.684c16.509,0,29.284,12.098,29.284,29.307
	c0,17.207-12.775,29.3-29.284,29.3c-9.315,0-14.647-1.885-17.833-3.766v39.791c3.985,1.614,10.651,3.227,20.756,3.227
	c33.817,0,68.968-23.394,68.968-68.286c0-39.252-29.821-68.818-71.092-68.818c-37.812,0-69.353,21.503-69.353,63.443v168.077
	L411.221,343.63z"/>
<polygon fill="#FFFFFF" points="357.143,112.226 302.024,112.226 282.926,186.191 282.522,186.191 262.615,112.226 201.376,112.226 
	201.376,251.617 238.834,251.617 238.834,152.048 239.238,152.048 265.447,251.617 292.677,251.617 318.078,152.048 
	318.492,152.048 318.492,251.617 357.143,251.617 "/>
<polygon fill="#FFFFFF" points="3.931,61.73 95.699,9.351 186.77,62.424 95.012,114.214 "/>
<polygon fill="#FFFFFF" points="45.294,95.566 95.012,124.531 144.021,96.96 170.2,112.137 93.616,156.278 17.729,112.137 "/>
<polygon fill="#FFFFFF" points="57.696,143.88 94.314,166.01 131.619,144.575 157.11,159.754 94.314,196.367 30.81,159.754 "/>
<polygon fill="#FFFFFF" points="70.208,190.809 93.616,205.99 119.915,190.809 146.792,206.681 94.314,237.735 42.523,205.99 "/>
<polygon fill="#FFFFFF" points="77.046,236.343 93.616,246.075 112.269,236.343 139.146,251.53 95.001,277.824 52.254,252.226 "/>
<path fill="#FFFFFF" d="M1215.25,181.881c0-22.111,4.229-54.016,32.075-54.016c27.85,0,32.289,31.904,32.289,54.016
	c0,22.119-4.439,54.021-32.289,54.021C1219.479,235.901,1215.25,204,1215.25,181.881 M1247.325,251.561
	c42.777,0,54.481-33.275,54.481-69.682c0-36.6-11.704-69.678-54.481-69.678c-42.778,0-54.277,33.079-54.277,69.678
	C1193.048,218.286,1204.547,251.561,1247.325,251.561 M1184.781,225.334c-3.63,2.151-15.332,10.567-32.489,10.567
	c-28.85,0-37.325-24.855-37.325-58.716c0-18.397,3.632-49.321,29.859-49.321c19.574,0,21.991,15.262,21.991,23.488h23.408
	c0-23.1-16.335-39.15-44.791-39.15c-40.564,0-52.662,32.296-52.662,68.116c0,52.841,24.813,71.242,55.484,71.242
	c16.347,0,30.68-5.479,36.523-8.026L1184.781,225.334L1184.781,225.334z M976.948,251.481h18.158V139.895h0.404l56.293,111.586
	h23.812V112.254h-18.157v108.959h-0.404l-54.887-108.959h-25.219V251.481L976.948,251.481z M884.129,251.481h78.697v-16.144H904.31
	v-48.225h53.875v-16.146H904.31v-42.575h56.696v-16.14h-76.877V251.481L884.129,251.481z M807.05,251.481h25.024l47.411-139.228
	h-21.182l-38.338,116.225h-0.404L781.63,112.254h-21.192L807.05,251.481z M687.191,251.481h78.699v-16.144h-58.52v-48.225h53.875
	v-16.146H707.37v-42.575h56.698v-16.14H687.19L687.191,251.481L687.191,251.481z M595.787,128.393h11.704
	c25.432,0,40.362,9.083,40.362,53.474c0,43.783-14.932,53.269-40.159,53.472h-11.906L595.787,128.393L595.787,128.393z
	 M575.617,251.481h35.708c32.29,0,58.721-12.311,58.721-70.018c0-45.805-16.336-69.21-58.721-69.21h-35.708V251.481L575.617,251.481
	z"/>
</svg>
