<?xml version="1.0" encoding="utf-8"?>
<!-- Generator: Adobe Illustrator 16.0.0, SVG Export Plug-In . SVG Version: 6.00 Build 0)  -->
<!DOCTYPE svg PUBLIC "-//W3C//DTD SVG 1.1//EN" "http://www.w3.org/Graphics/SVG/1.1/DTD/svg11.dtd">
<svg version="1.1" id="Capa_1" xmlns="http://www.w3.org/2000/svg" xmlns:xlink="http://www.w3.org/1999/xlink" x="0px" y="0px"
	 width="117.329px" height="43px" viewBox="0 0 117.329 43" enable-background="new 0 0 117.329 43" xml:space="preserve">
<path fill="#66747B" d="M52.305,42.928l0.012-20.223c0-2.589,1.268-4.454,3.865-4.454c2.119,0,3.762,1.554,3.762,3.765
	c0,2.209-1.643,3.764-3.762,3.764c-1.197,0-1.883-0.242-2.291-0.482v5.107c0.514,0.207,1.367,0.416,2.666,0.416
	c4.344,0,8.857-3.006,8.857-8.771c0-5.04-3.83-8.837-9.131-8.837c-4.855,0-8.908,2.762-8.908,8.148v21.584L52.305,42.928z"/>
<polygon fill="#66747B" points="45.36,13.211 38.282,13.211 35.829,22.709 35.778,22.709 33.221,13.211 25.356,13.211 
	25.356,31.111 30.167,31.111 30.167,18.325 30.217,18.325 33.584,31.111 37.083,31.111 40.344,18.325 40.395,18.325 40.395,31.111 
	45.36,31.111 "/>
<polygon fill="#66747B" points="0,6.727 11.786,0 23.481,6.816 11.696,13.466 "/>
<polygon fill="#66747B" points="5.313,11.072 11.696,14.792 17.991,11.25 21.354,13.2 11.516,18.869 1.772,13.2 "/>
<polygon fill="#66747B" points="6.905,17.277 11.608,20.118 16.399,17.366 19.67,19.314 11.608,24.018 3.452,19.314 "/>
<polygon fill="#66747B" points="8.512,23.305 11.516,25.253 14.895,23.305 18.348,25.343 11.608,29.33 4.956,25.253 "/>
<polygon fill="#66747B" points="9.389,29.15 11.516,30.4 13.913,29.15 17.366,31.102 11.696,34.479 6.206,31.191 "/>
<g>
	<path fill="#CE003D" d="M73.417,30.646V13.527h1.926v7.414h7.076v-7.414h1.926v17.119h-1.926v-8.094h-7.076v8.094H73.417z"/>
	<path fill="#CE003D" d="M88.694,30.646V13.527h1.926v17.119H88.694z"/>
	<path fill="#CE003D" d="M98.821,20.52l1.6,0.871c1.17,0.646,1.99,1.213,2.459,1.696c0.775,0.813,1.162,1.821,1.162,3.017
		c0,1.672-0.605,2.92-1.818,3.744c-1.043,0.717-2.449,1.076-4.221,1.076c-1.068,0-2.387-0.172-3.955-0.517v-1.979
		c1.496,0.592,2.889,0.885,4.174,0.885c1.094,0,1.975-0.252,2.646-0.752c0.703-0.535,1.055-1.261,1.055-2.176
		c0-0.857-0.295-1.576-0.885-2.16c-0.332-0.314-0.988-0.746-1.967-1.296l-1.516-0.849c-1.246-0.694-2.063-1.221-2.451-1.575
		c-0.832-0.774-1.25-1.729-1.25-2.858c0-1.431,0.525-2.533,1.578-3.308c0.979-0.728,2.291-1.09,3.941-1.09
		c0.945,0,2.135,0.149,3.566,0.448v1.914c-1.203-0.502-2.451-0.752-3.744-0.752c-0.979,0-1.758,0.236-2.344,0.709
		s-0.879,1.108-0.879,1.908c0,0.664,0.307,1.269,0.922,1.817C97.25,19.602,97.891,20.01,98.821,20.52z"/>
	<path fill="#CE003D" d="M110.752,20.52l1.602,0.871c1.17,0.646,1.988,1.213,2.459,1.696c0.773,0.813,1.162,1.821,1.162,3.017
		c0,1.672-0.605,2.92-1.818,3.744c-1.043,0.717-2.451,1.076-4.221,1.076c-1.068,0-2.387-0.172-3.955-0.517v-1.979
		c1.496,0.592,2.889,0.885,4.174,0.885c1.092,0,1.975-0.252,2.645-0.752c0.703-0.535,1.057-1.261,1.057-2.176
		c0-0.857-0.295-1.576-0.885-2.16c-0.332-0.314-0.988-0.746-1.967-1.296l-1.516-0.849c-1.246-0.694-2.064-1.221-2.451-1.575
		c-0.834-0.774-1.25-1.729-1.25-2.858c0-1.431,0.525-2.533,1.576-3.308c0.979-0.728,2.293-1.09,3.943-1.09
		c0.945,0,2.135,0.149,3.564,0.448v1.914c-1.203-0.502-2.449-0.752-3.742-0.752c-0.979,0-1.76,0.236-2.344,0.709
		c-0.586,0.473-0.879,1.108-0.879,1.908c0,0.664,0.307,1.269,0.92,1.817C109.182,19.602,109.825,20.01,110.752,20.52z"/>
</g>
</svg>
