<?xml version="1.0" encoding="utf-8"?>
<!-- Generator: Adobe Illustrator 16.0.0, SVG Export Plug-In . SVG Version: 6.00 Build 0)  -->
<!DOCTYPE svg PUBLIC "-//W3C//DTD SVG 1.1//EN" "http://www.w3.org/Graphics/SVG/1.1/DTD/svg11.dtd">
<svg version="1.1" id="Capa_1" xmlns="http://www.w3.org/2000/svg" xmlns:xlink="http://www.w3.org/1999/xlink" x="0px" y="0px"
	 width="117.329px" height="43px" viewBox="698.504 154 117.329 43" enable-background="new 698.504 154 117.329 43"
	 xml:space="preserve">
<path fill="#FFFFFF" d="M750.809,196.928l0.012-20.223c0-2.589,1.267-4.454,3.865-4.454c2.12,0,3.761,1.554,3.761,3.765
	c0,2.209-1.641,3.763-3.761,3.763c-1.197,0-1.882-0.242-2.291-0.482v5.108c0.513,0.206,1.367,0.416,2.667,0.416
	c4.342,0,8.856-3.006,8.856-8.771c0-5.04-3.83-8.837-9.13-8.837c-4.856,0-8.908,2.761-8.908,8.148v21.585L750.809,196.928z"/>
<polygon fill="#FFFFFF" points="743.863,167.211 736.785,167.211 734.333,176.709 734.281,176.709 731.726,167.211 723.859,167.211 
	723.859,185.111 728.671,185.111 728.671,172.325 728.722,172.325 732.088,185.111 735.586,185.111 738.848,172.325 
	738.899,172.325 738.899,185.111 743.863,185.111 "/>
<polygon fill="#FFFFFF" points="698.504,160.727 710.289,154 721.985,160.816 710.2,167.466 "/>
<polygon fill="#FFFFFF" points="703.816,165.072 710.2,168.792 716.494,165.25 719.857,167.2 710.021,172.869 700.276,167.2 "/>
<polygon fill="#FFFFFF" points="705.409,171.277 710.111,174.118 714.902,171.366 718.175,173.315 710.111,178.018 701.956,173.315 
	"/>
<polygon fill="#FFFFFF" points="707.017,177.304 710.021,179.253 713.399,177.304 716.852,179.343 710.111,183.33 703.46,179.253 
	"/>
<polygon fill="#FFFFFF" points="707.893,183.151 710.021,184.4 712.416,183.151 715.869,185.101 710.199,188.478 704.71,185.191 "/>
<rect x="769.843" y="200.961" fill="none" width="144.157" height="20.039"/>
<text transform="matrix(1 0 0 1 769.8428 218.9004)" fill="#CE003D" font-family="'AgfaRotisSansSerif'" font-size="26">HISS</text>
<g>
	<path fill="#FFFFFF" d="M771.921,184.646v-17.118h1.926v7.414h7.075v-7.414h1.926v17.118h-1.926v-8.093h-7.075v8.093H771.921z"/>
	<path fill="#FFFFFF" d="M787.197,184.646v-17.118h1.926v17.118H787.197z"/>
	<path fill="#FFFFFF" d="M797.324,174.519l1.6,0.872c1.171,0.646,1.99,1.212,2.459,1.696c0.775,0.814,1.163,1.821,1.163,3.016
		c0,1.672-0.606,2.92-1.819,3.744c-1.043,0.718-2.45,1.077-4.221,1.077c-1.067,0-2.386-0.172-3.954-0.517v-1.979
		c1.496,0.591,2.888,0.885,4.174,0.885c1.092,0,1.974-0.252,2.645-0.753c0.703-0.535,1.056-1.26,1.056-2.175
		c0-0.857-0.295-1.577-0.885-2.16c-0.332-0.315-0.988-0.747-1.967-1.296l-1.516-0.849c-1.246-0.694-2.063-1.22-2.451-1.575
		c-0.833-0.775-1.25-1.729-1.25-2.859c0-1.43,0.525-2.532,1.577-3.307c0.979-0.727,2.292-1.09,3.942-1.09
		c0.946,0,2.135,0.149,3.566,0.448v1.914c-1.203-0.501-2.451-0.751-3.743-0.751c-0.978,0-1.759,0.236-2.344,0.709
		c-0.586,0.472-0.879,1.108-0.879,1.908c0,0.663,0.307,1.268,0.921,1.817C795.754,173.602,796.396,174.01,797.324,174.519z"/>
	<path fill="#FFFFFF" d="M809.257,174.519l1.6,0.872c1.171,0.646,1.99,1.212,2.459,1.696c0.775,0.814,1.163,1.821,1.163,3.016
		c0,1.672-0.606,2.92-1.819,3.744c-1.043,0.718-2.45,1.077-4.221,1.077c-1.067,0-2.386-0.172-3.954-0.517v-1.979
		c1.496,0.591,2.888,0.885,4.174,0.885c1.092,0,1.974-0.252,2.645-0.753c0.703-0.535,1.056-1.26,1.056-2.175
		c0-0.857-0.295-1.577-0.885-2.16c-0.332-0.315-0.988-0.747-1.967-1.296l-1.516-0.849c-1.246-0.694-2.063-1.22-2.451-1.575
		c-0.833-0.775-1.25-1.729-1.25-2.859c0-1.43,0.526-2.532,1.577-3.307c0.979-0.727,2.292-1.09,3.942-1.09
		c0.946,0,2.135,0.149,3.566,0.448v1.914c-1.203-0.501-2.45-0.751-3.743-0.751c-0.978,0-1.759,0.236-2.344,0.709
		c-0.586,0.472-0.879,1.108-0.879,1.908c0,0.663,0.307,1.268,0.921,1.817C807.687,173.602,808.328,174.01,809.257,174.519z"/>
</g>
</svg>
