<?xml version="1.0" encoding="utf-8"?>
<!-- Generator: Adobe Illustrator 16.0.0, SVG Export Plug-In . SVG Version: 6.00 Build 0)  -->
<!DOCTYPE svg PUBLIC "-//W3C//DTD SVG 1.1//EN" "http://www.w3.org/Graphics/SVG/1.1/DTD/svg11.dtd">
<svg version="1.1" id="Capa_1" xmlns="http://www.w3.org/2000/svg" xmlns:xlink="http://www.w3.org/1999/xlink" x="0px" y="0px"
	 width="126.684px" height="43px" viewBox="573.442 154 126.684 43" enable-background="new 573.442 154 126.684 43"
	 xml:space="preserve">
<g>
	<g>
		<path fill="#FFFFFF" d="M646.513,184.944v-17.593h2.553v17.593H646.513z"/>
		<path fill="#FFFFFF" d="M653.112,184.944v-17.593h9.439v2.042h-6.887v5.379h6.525v2.042h-6.525v8.131H653.112z"/>
		<path fill="#FFFFFF" d="M664.891,184.944v-17.593h3.598l4.993,14.406h0.05l4.993-14.406h3.573v17.593h-2.291v-14.58h-0.05
			l-5.056,14.58h-2.415l-5.056-14.58h-0.049v14.58H664.891z"/>
		<path fill="#FFFFFF" d="M684.34,184.944l6.001-17.593h3.138l6.014,17.593h-2.701l-1.731-5.018h-6.3l-1.706,5.018H684.34z
			 M691.898,169.692l-2.553,8.194h5.018l-2.415-8.194H691.898z"/>
	</g>
	<g>
		<path fill="#FFFFFF" d="M629.707,167.352c-4.788,0-8.784,2.723-8.784,8.036v21.29l4.859-0.016l0.013-19.945
			c0-2.556,1.248-4.395,3.811-4.395c2.092,0,3.709,1.533,3.709,3.712c0,2.18-1.617,3.712-3.709,3.712
			c-1.181,0-1.855-0.239-2.259-0.477v5.039c0.505,0.205,1.349,0.409,2.631,0.409c4.282,0,8.734-2.964,8.734-8.649
			C638.712,171.097,634.935,167.352,629.707,167.352z"/>
		<polygon fill="#FFFFFF" points="609.531,176.72 609.48,176.72 606.959,167.352 599.201,167.352 599.201,185.01 603.946,185.01 
			603.946,172.397 603.999,172.397 607.317,185.01 610.766,185.01 613.984,172.397 614.037,172.397 614.037,185.01 618.932,185.01 
			618.932,167.352 611.95,167.352 		"/>
		<polygon fill="#FFFFFF" points="574.192,160.956 585.728,167.604 597.351,161.043 585.816,154.321 		"/>
		<polygon fill="#FFFFFF" points="585.728,168.911 579.432,165.242 575.939,167.341 585.552,172.931 595.252,167.341 
			591.936,165.418 		"/>
		<polygon fill="#FFFFFF" points="585.64,174.165 581.002,171.362 577.597,173.372 585.64,178.01 593.594,173.372 590.365,171.449 
					"/>
		<polygon fill="#FFFFFF" points="585.552,179.228 582.587,177.305 579.08,179.228 585.64,183.251 592.288,179.315 588.883,177.305 
					"/>
		<polygon fill="#FFFFFF" points="585.552,184.305 583.453,183.075 580.312,185.085 585.727,188.328 591.32,184.998 
			587.914,183.075 		"/>
	</g>
</g>
</svg>
