<?xml version="1.0" encoding="utf-8"?>
<!-- Generator: Adobe Illustrator 16.0.0, SVG Export Plug-In . SVG Version: 6.00 Build 0)  -->
<!DOCTYPE svg PUBLIC "-//W3C//DTD SVG 1.1//EN" "http://www.w3.org/Graphics/SVG/1.1/DTD/svg11.dtd">
<svg version="1.1" id="Capa_1" xmlns="http://www.w3.org/2000/svg" xmlns:xlink="http://www.w3.org/1999/xlink" x="0px" y="0px"
	 width="1127.066px" height="351px" viewBox="0 0 1127.066 351" enable-background="new 0 0 1127.066 351" xml:space="preserve">
<path fill="#FFFFFF" d="M411.221,343.63l0.09-157.473c0-20.167,9.861-34.684,30.093-34.684c16.509,0,29.284,12.098,29.284,29.307
	c0,17.207-12.775,29.3-29.284,29.3c-9.315,0-14.647-1.885-17.833-3.766v39.791c3.985,1.614,10.651,3.227,20.756,3.227
	c33.817,0,68.968-23.394,68.968-68.286c0-39.252-29.821-68.818-71.092-68.818c-37.812,0-69.353,21.503-69.353,63.443v168.077
	L411.221,343.63z"/>
<polygon fill="#FFFFFF" points="357.143,112.226 302.024,112.226 282.926,186.191 282.522,186.191 262.615,112.226 201.376,112.226 
	201.376,251.617 238.834,251.617 238.834,152.048 239.238,152.048 265.447,251.617 292.677,251.617 318.078,152.048 
	318.492,152.048 318.492,251.617 357.143,251.617 "/>
<polygon fill="#FFFFFF" points="3.931,61.73 95.699,9.351 186.77,62.424 95.012,114.214 "/>
<polygon fill="#FFFFFF" points="45.294,95.566 95.012,124.531 144.021,96.96 170.2,112.137 93.616,156.278 17.729,112.137 "/>
<polygon fill="#FFFFFF" points="57.696,143.88 94.314,166.01 131.619,144.575 157.11,159.754 94.314,196.367 30.81,159.754 "/>
<polygon fill="#FFFFFF" points="70.208,190.809 93.616,205.99 119.915,190.809 146.792,206.681 94.314,237.735 42.523,205.99 "/>
<polygon fill="#FFFFFF" points="77.046,236.343 93.616,246.075 112.269,236.343 139.146,251.53 95.001,277.824 52.254,252.226 "/>
<g>
	<path fill="#FFFFFF" d="M575.617,251.765V112.202h20.248v123.365h53.534v16.198H575.617z"/>
	<path fill="#FFFFFF" d="M665.4,251.765V112.202h20.248v139.563H665.4z"/>
	<path fill="#FFFFFF" d="M717.748,251.765V112.202h74.869V128.4h-54.621v42.669h51.756v16.198h-51.756v64.498H717.748z"/>
	<path fill="#FFFFFF" d="M829.952,251.765V128.4h-34.768v-16.198h89.783V128.4H850.2v123.365H829.952z"/>
	<path fill="#FFFFFF" d="M901.166,251.765V112.202h78.918V128.4h-58.67v42.669h53.929v16.198h-53.929v48.3h58.67v16.198H901.166z"/>
	<path fill="#FFFFFF" d="M1002.308,251.765V112.202h25.285l55.015,109.24h0.396v-109.24h18.174v139.563h-23.804l-56.497-111.908
		h-0.395v111.908H1002.308z"/>
</g>
</svg>
