<?xml version="1.0" encoding="utf-8"?>
<!-- Generator: Adobe Illustrator 16.0.0, SVG Export Plug-In . SVG Version: 6.00 Build 0)  -->
<!DOCTYPE svg PUBLIC "-//W3C//DTD SVG 1.1//EN" "http://www.w3.org/Graphics/SVG/1.1/DTD/svg11.dtd">
<svg version="1.1" id="Capa_1" xmlns="http://www.w3.org/2000/svg" xmlns:xlink="http://www.w3.org/1999/xlink" x="0px" y="0px"
	 width="1184px" height="351px" viewBox="0 0 1184 351" enable-background="new 0 0 1184 351" xml:space="preserve">
<path fill="#FFFFFF" d="M411.221,343.63l0.09-157.473c0-20.167,9.861-34.684,30.093-34.684c16.509,0,29.284,12.098,29.284,29.307
	c0,17.207-12.775,29.3-29.284,29.3c-9.315,0-14.647-1.885-17.833-3.766v39.791c3.985,1.614,10.651,3.227,20.756,3.227
	c33.817,0,68.968-23.394,68.968-68.286c0-39.252-29.821-68.818-71.092-68.818c-37.812,0-69.353,21.503-69.353,63.443v168.077
	L411.221,343.63z"/>
<polygon fill="#FFFFFF" points="357.143,112.226 302.024,112.226 282.926,186.191 282.522,186.191 262.615,112.226 201.376,112.226 
	201.376,251.617 238.834,251.617 238.834,152.048 239.238,152.048 265.447,251.617 292.677,251.617 318.078,152.048 
	318.492,152.048 318.492,251.617 357.143,251.617 "/>
<polygon fill="#FFFFFF" points="3.931,61.73 95.699,9.351 186.77,62.424 95.012,114.214 "/>
<polygon fill="#FFFFFF" points="45.294,95.566 95.012,124.531 144.021,96.96 170.2,112.137 93.616,156.278 17.729,112.137 "/>
<polygon fill="#FFFFFF" points="57.696,143.88 94.314,166.01 131.619,144.575 157.11,159.754 94.314,196.367 30.81,159.754 "/>
<polygon fill="#FFFFFF" points="70.208,190.809 93.616,205.99 119.915,190.809 146.792,206.681 94.314,237.735 42.523,205.99 "/>
<polygon fill="#FFFFFF" points="77.046,236.343 93.616,246.075 112.269,236.343 139.146,251.53 95.001,277.824 52.254,252.226 "/>
<g>
	<path fill="#FFFFFF" d="M1117.49,251.263h20.18v-123.14h34.719v-16.146h-89.628v16.146h34.729V251.263z M1013.523,251.263h20.189
		v-64.396h51.68v-16.149h-51.68v-42.594h54.504v-16.146h-74.693V251.263z M969.322,251.263h20.188V111.978h-20.188V251.263z
		 M887.769,251.263h73.688v-16.151h-53.501V111.978h-20.188V251.263z M784.024,181.635c0-22.121,4.239-54.038,32.099-54.038
		c27.848,0,32.292,31.917,32.292,54.038c0,22.127-4.444,54.039-32.292,54.039C788.263,235.675,784.024,203.762,784.024,181.635
		 M816.122,251.344c42.784,0,54.494-33.288,54.494-69.709c0-36.617-11.71-69.708-54.494-69.708
		c-42.806,0-54.301,33.091-54.301,69.708C761.822,218.056,773.317,251.344,816.122,251.344 M688.342,128.124h16.346
		c14.946,0,24.438,5.854,24.438,22.815c0,18.569-14.948,24.221-29.073,24.221h-11.71V128.124z M668.155,251.263h20.188v-59.954
		h11.507c19.38,0,21.798,9.082,27.453,29.063l8.472,30.891h18.376l-8.278-38.758c-3.025-14.532-5.05-26.646-24.021-30.682v-0.406
		c14.125-3.431,27.453-11.101,27.453-32.903c0-27.252-18.974-36.537-40.771-36.537h-40.377V251.263z M595.689,128.124h14.329
		c10.504,0,25.644,1.417,25.644,23.422c0,16.95-10.911,23.006-25.644,23.006h-14.329V128.124z M575.5,251.263h20.188v-60.561h17.962
		c14.137,0,44.213-5.045,44.213-39.157c0-36.542-28.265-39.568-48.859-39.568H575.5V251.263z"/>
</g>
</svg>
