<?xml version="1.0" encoding="utf-8"?>
<!-- Generator: Adobe Illustrator 16.0.0, SVG Export Plug-In . SVG Version: 6.00 Build 0)  -->
<!DOCTYPE svg PUBLIC "-//W3C//DTD SVG 1.1//EN" "http://www.w3.org/Graphics/SVG/1.1/DTD/svg11.dtd">
<svg version="1.1" id="Capa_1" xmlns="http://www.w3.org/2000/svg" xmlns:xlink="http://www.w3.org/1999/xlink" x="0px" y="0px"
	 width="1592.044px" height="351px" viewBox="0 0 1592.044 351" enable-background="new 0 0 1592.044 351" xml:space="preserve">
<path fill="#FFFFFF" d="M411.221,343.629l0.09-157.472c0-20.167,9.861-34.684,30.093-34.684c16.509,0,29.284,12.098,29.284,29.306
	c0,17.207-12.775,29.301-29.284,29.301c-9.316,0-14.648-1.885-17.833-3.766v39.791c3.984,1.613,10.65,3.227,20.756,3.227
	c33.816,0,68.967-23.395,68.967-68.286c0-39.252-29.821-68.819-71.091-68.819c-37.812,0-69.353,21.503-69.353,63.444v168.077
	L411.221,343.629z"/>
<polygon fill="#FFFFFF" points="357.143,112.226 302.024,112.226 282.926,186.191 282.522,186.191 262.615,112.226 201.376,112.226 
	201.376,251.617 238.834,251.617 238.834,152.048 239.238,152.048 265.447,251.617 292.677,251.617 318.078,152.048 
	318.492,152.048 318.492,251.617 357.143,251.617 "/>
<polygon fill="#FFFFFF" points="3.931,61.73 95.699,9.351 186.77,62.424 95.012,114.214 "/>
<polygon fill="#FFFFFF" points="45.294,95.566 95.012,124.531 144.021,96.96 170.2,112.137 93.616,156.278 17.729,112.137 "/>
<polygon fill="#FFFFFF" points="57.696,143.88 94.314,166.01 131.619,144.575 157.11,159.754 94.314,196.367 30.81,159.754 "/>
<polygon fill="#FFFFFF" points="70.208,190.809 93.616,205.99 119.915,190.809 146.792,206.682 94.314,237.734 42.523,205.99 "/>
<polygon fill="#FFFFFF" points="77.046,236.343 93.616,246.075 112.269,236.343 139.146,251.529 95.001,277.824 52.254,252.227 "/>
<g>
	<path fill="#FFFFFF" d="M575.618,248.711l42.873-134.322h18.537l43.348,134.322h-15.114l-13.499-41.447h-47.911l-13.023,41.447
		H575.618z M627.617,128.172l-19.678,66.449h39.736l-19.678-66.449H627.617z"/>
	<path fill="#FFFFFF" d="M728.763,169.239l12.548,6.845c9.188,5.071,15.621,9.506,19.298,13.309
		c6.084,6.402,9.126,14.292,9.126,23.67c0,13.119-4.759,22.91-14.277,29.374c-8.186,5.642-19.226,8.461-33.12,8.461
		c-8.377,0-18.719-1.353-31.028-4.056v-15.527c11.741,4.627,22.659,6.939,32.751,6.939c8.568,0,15.486-1.968,20.755-5.907
		c5.523-4.193,8.284-9.879,8.284-17.058c0-6.733-2.316-12.386-6.95-16.961c-2.603-2.472-7.744-5.861-15.424-10.172l-11.9-6.654
		c-9.773-5.45-16.184-9.568-19.23-12.358c-6.539-6.084-9.807-13.561-9.807-22.435c0-11.217,4.126-19.868,12.374-25.952
		c7.679-5.704,17.991-8.556,30.937-8.556c7.425,0,16.754,1.174,27.986,3.517v15.02c-9.444-3.929-19.235-5.894-29.374-5.894
		c-7.67,0-13.8,1.854-18.395,5.561c-4.596,3.708-6.892,8.698-6.892,14.973c0,5.197,2.406,9.95,7.225,14.259
		C716.436,162.047,721.474,165.247,728.763,169.239z"/>
	<path fill="#FFFFFF" d="M872.972,227.132v15.78c-6.718,2.726-10.87,4.342-12.453,4.849c-6.907,2.091-14.64,3.137-23.195,3.137
		c-18.506,0-32.195-7.89-41.066-23.671c-7.034-12.484-10.552-28.55-10.552-48.196c0-19.519,3.643-34.982,10.932-46.39
		c8.618-13.625,21.864-20.438,39.736-20.438c13.055,0,23.353,3.74,30.895,11.217c7.162,7.098,10.742,16.289,10.742,27.568h-17.111
		c0-7.731-2.124-13.941-6.369-18.632c-4.436-5.005-10.489-7.51-18.156-7.51c-22.689,0-34.032,18.331-34.032,54.993
		c0,15.223,2.312,27.781,6.939,37.675c6.526,13.829,17.111,20.741,31.751,20.741C852.629,238.254,863.275,234.547,872.972,227.132z"
		/>
	<path fill="#FFFFFF" d="M896.928,248.711V114.389h66.733v12.643h-51.619v44.964h47.531v12.644h-47.531v51.428h51.619v12.644
		H896.928z"/>
	<path fill="#FFFFFF" d="M987.046,248.711V114.389h19.488l55.325,113.504h0.381V114.389h14.354v134.322h-19.488l-55.23-113.124
		h-0.381v113.124H987.046z"/>
	<path fill="#FFFFFF" d="M1139.716,169.239l12.548,6.845c9.188,5.071,15.622,9.506,19.298,13.309
		c6.084,6.402,9.126,14.292,9.126,23.67c0,13.119-4.76,22.91-14.278,29.374c-8.185,5.642-19.226,8.461-33.121,8.461
		c-8.375,0-18.718-1.353-31.027-4.056v-15.527c11.742,4.627,22.659,6.939,32.752,6.939c8.567,0,15.486-1.968,20.755-5.907
		c5.522-4.193,8.284-9.879,8.284-17.058c0-6.733-2.317-12.386-6.951-16.961c-2.602-2.472-7.743-5.861-15.423-10.172l-11.901-6.654
		c-9.772-5.45-16.184-9.568-19.23-12.358c-6.538-6.084-9.806-13.561-9.806-22.435c0-11.217,4.124-19.868,12.374-25.952
		c7.678-5.704,17.991-8.556,30.938-8.556c7.424,0,16.753,1.174,27.984,3.517v15.02c-9.443-3.929-19.235-5.894-29.374-5.894
		c-7.668,0-13.8,1.854-18.395,5.561c-4.596,3.708-6.892,8.698-6.892,14.973c0,5.197,2.408,9.95,7.225,14.259
		C1127.389,162.047,1132.428,165.247,1139.716,169.239z"/>
	<path fill="#FFFFFF" d="M1244.568,250.897c-31.94,0-47.911-23.195-47.911-69.585c0-46.072,15.971-69.11,47.911-69.11
		c31.813,0,47.722,23.038,47.722,69.11C1292.29,227.702,1276.382,250.897,1244.568,250.897z M1213.293,181.17
		c0,38.058,10.41,57.084,31.229,57.084c20.755,0,31.133-19.026,31.133-57.084c0-37.55-10.378-56.325-31.133-56.325
		C1223.703,124.845,1213.293,143.62,1213.293,181.17z"/>
	<path fill="#FFFFFF" d="M1318.717,248.711V114.389h33.23c9.746,0,18.04,1.554,24.875,4.658
		c11.963,5.514,17.944,15.243,17.944,29.184c0,17.935-9.095,29.185-27.282,33.747v0.38c8.302,2.155,14.101,5.832,17.396,11.027
		c1.901,3.105,3.835,9.284,5.799,18.537l7.795,36.789h-15.114l-6.668-30.99c-2.286-10.773-5.017-17.998-8.189-21.674
		c-4.129-4.753-11.018-7.13-20.669-7.13h-14.001v59.794H1318.717z M1333.832,127.032v49.242h8.384
		c24.956,0,37.437-8.808,37.437-26.427c0-10.077-3.717-16.731-11.147-19.963c-4.444-1.901-12.224-2.852-23.336-2.852H1333.832z"/>
	<path fill="#FFFFFF" d="M1423.285,248.711V114.389h66.733v12.643H1438.4v44.964h47.53v12.644h-47.53v51.428h51.618v12.644H1423.285
		z"/>
	<path fill="#FFFFFF" d="M1543.443,169.239l12.548,6.845c9.188,5.071,15.622,9.506,19.298,13.309
		c6.084,6.402,9.126,14.292,9.126,23.67c0,13.119-4.759,22.91-14.277,29.374c-8.186,5.642-19.226,8.461-33.122,8.461
		c-8.375,0-18.717-1.353-31.026-4.056v-15.527c11.741,4.627,22.659,6.939,32.751,6.939c8.568,0,15.486-1.968,20.755-5.907
		c5.522-4.193,8.284-9.879,8.284-17.058c0-6.733-2.316-12.386-6.95-16.961c-2.603-2.472-7.744-5.861-15.424-10.172l-11.9-6.654
		c-9.773-5.45-16.185-9.568-19.231-12.358c-6.538-6.084-9.806-13.561-9.806-22.435c0-11.217,4.124-19.868,12.374-25.952
		c7.678-5.704,17.991-8.556,30.938-8.556c7.424,0,16.753,1.174,27.985,3.517v15.02c-9.444-3.929-19.235-5.894-29.374-5.894
		c-7.669,0-13.8,1.854-18.395,5.561c-4.596,3.708-6.893,8.698-6.893,14.973c0,5.197,2.408,9.95,7.225,14.259
		C1531.117,162.047,1536.155,165.247,1543.443,169.239z"/>
</g>
</svg>
