<?xml version="1.0" encoding="utf-8"?>
<!-- Generator: Adobe Illustrator 16.0.0, SVG Export Plug-In . SVG Version: 6.00 Build 0)  -->
<!DOCTYPE svg PUBLIC "-//W3C//DTD SVG 1.1//EN" "http://www.w3.org/Graphics/SVG/1.1/DTD/svg11.dtd">
<svg version="1.1" id="Capa_1" xmlns="http://www.w3.org/2000/svg" xmlns:xlink="http://www.w3.org/1999/xlink" x="0px" y="0px"
	 width="113.208px" height="43px" viewBox="0 0 113.208 43" enable-background="new 0 0 113.208 43" xml:space="preserve">
<path fill="#FFFFFF" d="M52.305,42.928l0.012-20.223c0-2.589,1.268-4.454,3.865-4.454c2.119,0,3.762,1.554,3.762,3.765
	c0,2.209-1.643,3.766-3.762,3.766c-1.197,0-1.883-0.242-2.291-0.482v5.107c0.514,0.205,1.367,0.414,2.666,0.414
	c4.344,0,8.857-3.006,8.857-8.771c0-5.04-3.83-8.837-9.131-8.837c-4.855,0-8.91,2.762-8.91,8.148v21.584L52.305,42.928z"/>
<polygon fill="#FFFFFF" points="45.36,13.211 38.282,13.211 35.829,22.709 35.778,22.709 33.221,13.211 25.356,13.211 
	25.356,31.111 30.167,31.111 30.167,18.325 30.217,18.325 33.584,31.111 37.083,31.111 40.344,18.325 40.395,18.325 40.395,31.111 
	45.36,31.111 "/>
<polygon fill="#FFFFFF" points="0,6.727 11.786,0 23.481,6.816 11.696,13.466 "/>
<polygon fill="#FFFFFF" points="5.313,11.072 11.696,14.792 17.991,11.25 21.354,13.2 11.516,18.869 1.772,13.2 "/>
<polygon fill="#FFFFFF" points="6.905,17.277 11.608,20.118 16.399,17.366 19.67,19.314 11.608,24.018 3.452,19.314 "/>
<polygon fill="#FFFFFF" points="8.512,23.305 11.516,25.253 14.895,23.305 18.348,25.343 11.608,29.33 4.956,25.253 "/>
<polygon fill="#FFFFFF" points="9.389,29.15 11.516,30.4 13.913,29.15 17.366,31.102 11.696,34.479 6.206,31.191 "/>
<g enable-background="new    ">
	<path fill="#FFFFFF" d="M78.379,20.535l1.598,0.872c1.17,0.645,1.988,1.21,2.458,1.694c0.774,0.813,1.161,1.818,1.161,3.014
		c0,1.671-0.605,2.918-1.818,3.74c-1.041,0.718-2.447,1.076-4.216,1.076c-1.067,0-2.384-0.172-3.952-0.517v-1.979
		c1.495,0.59,2.887,0.887,4.172,0.887c1.09,0,1.971-0.254,2.643-0.754c0.703-0.533,1.056-1.26,1.056-2.174
		c0-0.854-0.295-1.574-0.885-2.156c-0.332-0.314-0.986-0.747-1.966-1.297l-1.514-0.849c-1.246-0.693-2.063-1.218-2.449-1.573
		c-0.832-0.774-1.25-1.727-1.25-2.856c0-1.428,0.525-2.53,1.576-3.304c0.979-0.726,2.291-1.089,3.939-1.089
		c0.943,0,2.132,0.149,3.563,0.448v1.913c-1.201-0.5-2.449-0.75-3.738-0.75c-0.978,0-1.758,0.235-2.344,0.708
		c-0.584,0.471-0.877,1.107-0.877,1.906c0,0.662,0.307,1.267,0.92,1.815C76.81,19.619,77.452,20.027,78.379,20.535z"/>
	<path fill="#FFFFFF" d="M97.406,20.983v8.303c-0.387,0.348-0.927,0.666-1.622,0.957c-1.048,0.46-2.147,0.688-3.303,0.688
		c-4.568,0-6.852-3.136-6.852-9.406c0-2.405,0.477-4.325,1.429-5.762c1.104-1.662,2.755-2.493,4.948-2.493
		c1.672,0,3.012,0.468,4.02,1.404c0.985,0.904,1.477,2.082,1.477,3.535h-2.178c0-0.896-0.242-1.643-0.727-2.239
		c-0.59-0.726-1.444-1.089-2.566-1.089c-2.855,0-4.283,2.217-4.283,6.65c0,5.19,1.523,7.79,4.574,7.79
		c1.422,0,2.475-0.313,3.16-0.938v-5.794h-3.922V20.98L97.406,20.983L97.406,20.983z"/>
</g>
<g>
	<path fill="#FFFFFF" d="M98.077,30.654l5.459-17.104h2.359l5.52,17.104h-1.924l-1.72-5.277h-6.101l-1.658,5.277H98.077z
		 M104.697,15.306l-2.506,8.461h5.06l-2.504-8.461H104.697z"/>
</g>
</svg>
