<?xml version="1.0" encoding="utf-8"?>
<!-- Generator: Adobe Illustrator 16.0.0, SVG Export Plug-In . SVG Version: 6.00 Build 0)  -->
<!DOCTYPE svg PUBLIC "-//W3C//DTD SVG 1.1//EN" "http://www.w3.org/Graphics/SVG/1.1/DTD/svg11.dtd">
<svg version="1.1" id="Capa_1" xmlns="http://www.w3.org/2000/svg" xmlns:xlink="http://www.w3.org/1999/xlink" x="0px" y="0px"
	 width="491.865px" height="322.907px" viewBox="4.833 88.591 491.865 322.907"
	 enable-background="new 4.833 88.591 491.865 322.907" xml:space="preserve">
<g>
	<path fill="#67737A" d="M398.129,411.381l0.092-152.063c0-19.47,9.518-33.488,29.058-33.488c15.938,0,28.276,11.68,28.276,28.299
		c0,16.615-12.339,28.291-28.276,28.291c-9.004,0-14.146-1.819-17.227-3.635v38.426c3.853,1.559,10.28,3.111,20.05,3.111
		c32.654,0,66.596-22.589,66.596-65.938c0-37.904-28.803-66.455-68.647-66.455c-36.511,0-66.977,20.766-66.977,61.266v162.304
		L398.129,411.381z"/>
	<polygon fill="#67737A" points="345.903,187.931 292.679,187.931 274.244,259.353 273.845,259.353 254.623,187.931 
		195.489,187.931 195.489,322.531 231.665,322.531 231.665,226.387 232.054,226.387 257.365,322.531 283.659,322.531 
		308.184,226.387 308.58,226.387 308.58,322.531 345.903,322.531 	"/>
	<polygon fill="#67737A" points="93.45,88.591 4.833,139.168 92.774,189.849 181.391,139.84 	"/>
	<polygon fill="#67737A" points="44.778,171.842 92.777,199.812 140.1,173.185 165.394,187.842 91.433,230.473 18.15,187.842 	"/>
	<polygon fill="#67737A" points="56.75,218.497 92.107,239.865 128.132,219.168 152.748,233.825 92.107,269.179 30.789,233.825 	"/>
	<polygon fill="#67737A" points="68.831,263.812 91.433,278.469 116.83,263.812 142.79,279.14 92.105,309.129 42.095,278.469 	"/>
	<polygon fill="#67737A" points="75.435,307.781 91.435,317.18 109.445,307.781 135.405,322.445 92.778,347.836 51.49,323.115 	"/>
</g>
</svg>
