<?xml version="1.0" encoding="utf-8"?>
<!-- Generator: Adobe Illustrator 16.0.0, SVG Export Plug-In . SVG Version: 6.00 Build 0)  -->
<!DOCTYPE svg PUBLIC "-//W3C//DTD SVG 1.1//EN" "http://www.w3.org/Graphics/SVG/1.1/DTD/svg11.dtd">
<svg version="1.1" id="Capa_1" xmlns="http://www.w3.org/2000/svg" xmlns:xlink="http://www.w3.org/1999/xlink" x="0px" y="0px"
	 width="1307px" height="351px" viewBox="-396.5 74.5 1307 351" enable-background="new -396.5 74.5 1307 351" xml:space="preserve"
	>
<path fill="#66747B" d="M128.914,411.41l0.098-151.922c0-19.46,9.505-33.465,29.024-33.465c15.937,0,28.253,11.672,28.253,28.272
	c0,16.601-12.316,28.272-28.253,28.272c-8.988,0-14.131-1.824-17.206-3.635v38.388c3.845,1.562,10.276,3.113,20.036,3.113
	c32.616,0,66.529-22.568,66.529-65.88c0-37.871-28.771-66.397-68.588-66.397c-36.47,0-66.909,20.746-66.909,61.21v162.16
	L128.914,411.41z"/>
<polygon fill="#66747B" points="76.741,188.158 23.563,188.158 5.137,259.518 4.747,259.518 -14.459,188.158 -73.542,188.158 
	-73.542,322.641 -37.403,322.641 -37.403,226.578 -37.003,226.578 -11.727,322.641 14.545,322.641 39.051,226.578 39.451,226.578 
	39.451,322.641 76.741,322.641 "/>
<polygon fill="#66747B" points="-264.032,139.44 -175.496,88.906 -87.634,140.109 -176.16,190.075 "/>
<polygon fill="#66747B" points="-224.117,172.085 -176.16,200.03 -128.877,173.429 -103.62,188.073 -177.507,230.659 
	-250.721,188.073 "/>
<polygon fill="#66747B" points="-212.162,218.697 -176.834,240.048 -140.842,219.368 -116.248,234.012 -176.834,269.335 
	-238.093,234.012 "/>
<polygon fill="#66747B" points="-200.09,263.973 -177.507,278.616 -152.133,263.973 -126.193,279.29 -176.834,309.25 
	-226.801,278.616 "/>
<polygon fill="#66747B" points="-193.492,307.904 -177.507,317.292 -159.511,307.904 -133.571,322.553 -176.17,347.927 
	-217.412,323.226 "/>
<path fill="#CE003D" d="M700.172,203.756h15.771c14.404,0,23.559,5.646,23.559,22c0,17.908-14.404,23.359-28.038,23.359h-11.291
	V203.756z M680.711,322.509h19.461V264.69h11.096c18.689,0,21.031,8.76,26.477,28.029l8.179,29.79h17.713l-7.983-37.378
	c-2.918-14.015-4.859-25.696-23.158-29.59v-0.391c13.624-3.304,26.467-10.706,26.467-31.732c0-26.279-18.289-35.233-39.32-35.233
	h-38.93V322.509z M580.844,255.361c0-21.334,4.09-52.115,30.957-52.115c26.857,0,31.142,30.781,31.142,52.115
	c0,21.338-4.284,52.114-31.142,52.114C584.934,307.475,580.844,276.698,580.844,255.361 M611.802,322.587
	c41.262,0,52.554-32.104,52.554-67.227c0-35.312-11.292-67.225-52.554-67.225c-41.282,0-52.368,31.913-52.368,67.225
	C559.433,290.484,570.519,322.587,611.802,322.587 M505.308,322.509h19.47V203.756h33.483v-15.571h-86.438v15.571h33.484V322.509z
	 M412.41,322.509h71.058v-15.576H431.88V188.185h-19.47V322.509z M345.061,206.093h0.391l18.494,62.491h-38.354L345.061,206.093z
	 M287.433,322.509h20.641l13.038-38.35h48.084l13.233,38.35h20.641l-45.937-134.324h-23.949L287.433,322.509z"/>
</svg>
